<svg width="117" height="21" viewBox="0 0 117 21" fill="none" xmlns="http://www.w3.org/2000/svg">
<path d="M6.18164 6.4628V0H8.42957V6.4628H6.18164Z" fill="white"/>
<path d="M12.6446 8.43011L0.562012 13.7689V8.43011L11.8017 2.5293L18.8264 2.81029V6.46317L12.6446 8.43011Z" fill="white"/>
<path d="M0.561983 18.2648L21.0743 19.6697C17.7025 14.2747 21.5427 8.43006 23.8843 6.18213C15.1173 8.43006 4.30853 13.4879 0 15.7358L0.561983 18.2648Z" fill="white"/>
<path d="M30.5015 20.0109V6.52729H32.9117V12.4945H32.949L38.685 6.52729H41.5997L34.724 13.5464L34.7427 12.4754L42.0481 20.0109H39.04L32.949 13.7759H32.9117V20.0109H30.5015Z" fill="white"/>
<path d="M45.9764 20.2021C44.818 20.2021 43.9523 19.877 43.3793 19.2267C42.8063 18.5765 42.5198 17.5819 42.5198 16.2431V10.3524H44.8553V16.224C44.8553 16.938 44.9986 17.4672 45.2851 17.8114C45.5715 18.143 46.0075 18.3087 46.5929 18.3087C47.2531 18.3087 47.7887 18.0792 48.1997 17.6202C48.6232 17.1612 48.835 16.5555 48.835 15.8032V10.3524H51.1705V20.0109H48.891V18.0409H49.1526C48.8786 18.7295 48.4613 19.265 47.9008 19.6475C47.3527 20.0173 46.7113 20.2021 45.9764 20.2021Z" fill="white"/>
<path d="M53.7059 20.0109V12.7623C53.7059 12.367 53.6935 11.9654 53.6686 11.5573C53.6436 11.1493 53.6063 10.7477 53.5565 10.3524H55.8172L56.004 12.265H55.7798C56.0788 11.5892 56.521 11.0728 57.1064 10.7158C57.6918 10.346 58.3707 10.1612 59.1429 10.1612C60.2515 10.1612 61.086 10.4799 61.6466 11.1174C62.2071 11.755 62.4873 12.7495 62.4873 14.1011V20.0109H60.1519V14.2158C60.1519 13.438 60.0024 12.8834 59.7034 12.5519C59.417 12.2076 58.981 12.0355 58.3956 12.0355C57.6731 12.0355 57.1002 12.265 56.6767 12.724C56.2532 13.183 56.0414 13.795 56.0414 14.5601V20.0109H53.7059Z" fill="white"/>
<path d="M63.5437 20.0109L68.962 12.6284V13.6803L63.7305 6.52729H66.5518L70.3446 11.9016H69.5786L73.3527 6.52729H76.1927L70.9425 13.6803V12.6284L76.3795 20.0109H73.5396L69.5412 14.3879H70.3633L66.365 20.0109H63.5437Z" fill="white"/>
<path d="M77.4986 20.0109V10.3524H79.8341V20.0109H77.4986ZM77.3679 8.53548V6.20215H79.9649V8.53548H77.3679Z" fill="white"/>
<path d="M82.3703 20.0109V12.7623C82.3703 12.367 82.3578 11.9654 82.3329 11.5573C82.308 11.1493 82.2707 10.7477 82.2208 10.3524H84.4816L84.6684 12.265H84.4442C84.7432 11.5892 85.1853 11.0728 85.7708 10.7158C86.3562 10.346 87.035 10.1612 87.8073 10.1612C88.9159 10.1612 89.7504 10.4799 90.3109 11.1174C90.8715 11.755 91.1517 12.7495 91.1517 14.1011V20.0109H88.8162V14.2158C88.8162 13.438 88.6668 12.8834 88.3678 12.5519C88.0813 12.2076 87.6454 12.0355 87.0599 12.0355C86.3375 12.0355 85.7645 12.265 85.341 12.724C84.9175 13.183 84.7058 13.795 84.7058 14.5601V20.0109H82.3703Z" fill="white"/>
<path d="M100.167 20.2021C98.6852 20.2021 97.4396 19.9216 96.4306 19.3606C95.4217 18.7996 94.6619 18.0027 94.1512 16.9699C93.6405 15.9371 93.3852 14.7131 93.3852 13.2978C93.3852 11.8697 93.6592 10.6393 94.2073 9.60652C94.7553 8.56098 95.54 7.7577 96.5614 7.19668C97.5953 6.62291 98.8346 6.33603 100.28 6.33603C101.239 6.33603 102.079 6.46991 102.802 6.73767C103.524 6.99268 104.16 7.36882 104.708 7.86608L103.904 9.77865C103.506 9.45989 103.126 9.20488 102.764 9.01362C102.403 8.82237 102.03 8.68849 101.643 8.61199C101.257 8.52273 100.809 8.47811 100.298 8.47811C98.8533 8.47811 97.7572 8.89887 97.0098 9.7404C96.2749 10.5692 95.9075 11.7613 95.9075 13.3169C95.9075 14.8725 96.2562 16.0583 96.9538 16.8743C97.6638 17.6903 98.7723 18.0983 100.28 18.0983C100.79 18.0983 101.301 18.0473 101.812 17.9453C102.335 17.8433 102.845 17.6967 103.344 17.5054L102.895 18.5382V14.5027H99.8124V12.7049H104.894V19.1885C104.284 19.5072 103.555 19.7559 102.708 19.9344C101.861 20.1129 101.014 20.2021 100.167 20.2021Z" fill="white"/>
<path d="M111.718 20.2021C110.747 20.2021 109.906 19.9981 109.196 19.5901C108.486 19.1821 107.932 18.602 107.533 17.8497C107.147 17.0974 106.954 16.2049 106.954 15.1721C106.954 14.1393 107.147 13.2532 107.533 12.5136C107.932 11.7613 108.486 11.1812 109.196 10.7732C109.906 10.3652 110.747 10.1612 111.718 10.1612C112.69 10.1612 113.531 10.3652 114.241 10.7732C114.963 11.1812 115.517 11.7613 115.904 12.5136C116.302 13.2532 116.501 14.1393 116.501 15.1721C116.501 16.2049 116.302 17.0974 115.904 17.8497C115.517 18.602 114.963 19.1821 114.241 19.5901C113.531 19.9981 112.69 20.2021 111.718 20.2021ZM111.718 18.3661C112.453 18.3661 113.039 18.1047 113.475 17.5819C113.911 17.0464 114.129 16.2431 114.129 15.1721C114.129 14.1011 113.911 13.3042 113.475 12.7814C113.039 12.2586 112.453 11.9972 111.718 11.9972C110.984 11.9972 110.398 12.2586 109.962 12.7814C109.526 13.3042 109.308 14.1011 109.308 15.1721C109.308 16.2431 109.526 17.0464 109.962 17.5819C110.398 18.1047 110.984 18.3661 111.718 18.3661Z" fill="white"/>
</svg>
