<svg width="32.000000" height="32.000000" viewBox="0 0 32 32" fill="none" xmlns="http://www.w3.org/2000/svg" xmlns:xlink="http://www.w3.org/1999/xlink">
	<desc>
			Created with Pixso.
	</desc>
	<defs>
		<clipPath id="clip7_978">
			<rect id="Telegram svg" width="32.000000" height="32.000000" fill="white" fill-opacity="0"/>
		</clipPath>
		<linearGradient id="paint_linear_7_974_0" x1="2.020761" y1="15.989866" x2="30.000500" y2="15.989866" gradientUnits="userSpaceOnUse">
			<stop stop-color="#2AABEE"/>
			<stop offset="1.000000" stop-color="#229ED9"/>
		</linearGradient>
	</defs>
	<rect id="Telegram svg" width="32.000000" height="32.000000" fill="#FFFFFF" fill-opacity="0"/>
	<g clip-path="url(#clip7_978)">
		<path id="Oval" d="M30 16C30 23.7319 23.7319 30 16 30C8.26807 30 2 23.7319 2 16C2 8.26807 8.26807 2 16 2C23.7319 2 30 8.26807 30 16Z" fill="url(#paint_linear_7_974_0)" fill-opacity="1.000000" fill-rule="evenodd"/>
		<path id="Path-3" d="M9.05762 15.1647C13.0786 13.457 15.7666 12.3533 17.0996 11.8118C20.9268 10.2708 21.7227 10 22.2383 10C22.3462 10 22.604 10.0209 22.7759 10.1458C22.9053 10.2499 22.9482 10.3956 22.9697 10.4998C22.9912 10.6039 23.0127 10.833 22.9912 11.0204C22.7759 13.1238 21.8945 18.2677 21.4214 20.6208C21.228 21.6205 20.8408 21.9537 20.4756 21.9954C19.6797 22.0579 19.0562 21.4747 18.2822 20.9957C17.0781 20.2252 16.3901 19.7462 15.2075 18.9966C13.8525 18.1218 14.7344 17.6429 15.5083 16.8723C15.7021 16.6641 19.2495 13.5612 19.3145 13.2695C19.3145 13.2279 19.3359 13.103 19.2495 13.0405C19.1636 12.978 19.0562 12.9989 18.9702 13.0197C18.8413 13.0405 16.9062 14.29 13.1431 16.7474C12.584 17.1223 12.0894 17.2888 11.6382 17.2888C11.1436 17.2888 10.1973 17.0182 9.48779 16.7891C8.62793 16.5183 7.93945 16.3726 8.00439 15.9144C8.06885 15.6644 8.4126 15.4146 9.05762 15.1647Z" fill="#FFFFFF" fill-opacity="1.000000" fill-rule="evenodd"/>
	</g>
</svg>
