<svg width="116.501465" height="20.202148" viewBox="0 0 116.501 20.2021" fill="none" xmlns="http://www.w3.org/2000/svg" xmlns:xlink="http://www.w3.org/1999/xlink">
	<desc>
			Created with Pixso.
	</desc>
	<defs/>
	<path id="Vector 11" d="M6.18164 0.00012207L6.18164 6.46289L8.42969 6.46289L8.42969 0.00012207L6.18164 0.00012207Z" fill="#14171F" fill-opacity="1.000000" fill-rule="evenodd"/>
	<path id="Vector 10" d="M0.561768 13.7687L12.6443 8.42981L18.8262 6.46289L18.8262 2.81006L11.8015 2.52905L0.561768 8.42981L0.561768 13.7687Z" fill="#14171F" fill-opacity="1.000000" fill-rule="evenodd"/>
	<path id="Vector 8" d="M21.0745 19.6694L0.562012 18.2645L0 15.7356C4.30859 13.4877 15.1174 8.42981 23.8843 6.18188C21.5427 8.42981 17.7024 14.2744 21.0745 19.6694Z" fill="#14171F" fill-opacity="1.000000" fill-rule="evenodd"/>
	<path id="KunXinGo" d="M77.3679 8.53552L77.3679 6.20215L79.9648 6.20215L79.9648 8.53552L77.3679 8.53552ZM100.167 20.2021C98.6851 20.2021 97.4395 19.9216 96.4307 19.3606C95.4216 18.7996 94.6619 18.0027 94.1511 16.9698C93.6406 15.9371 93.3853 14.7131 93.3853 13.2977C93.3853 11.8698 93.6592 10.6393 94.2073 9.60657Q94.6501 8.7616 95.2991 8.12756L95.2993 8.12756Q95.8547 7.58484 96.5615 7.19666C97.5952 6.62292 98.8347 6.33606 100.28 6.33606Q101.718 6.33606 102.802 6.73767C103.524 6.99268 104.159 7.36877 104.708 7.86609L103.904 9.77869C103.506 9.45984 103.126 9.20483 102.764 9.01367C102.403 8.82239 102.03 8.68848 101.643 8.61194C101.257 8.52271 100.809 8.47815 100.298 8.47815C98.8533 8.47815 97.7571 8.89893 97.0098 9.74036Q95.9075 10.9835 95.9075 13.3169Q95.9075 15.6503 96.9539 16.8743C97.6638 17.6903 98.7725 18.0983 100.28 18.0983C100.79 18.0983 101.301 18.0474 101.812 17.9453C102.179 17.8737 102.54 17.78 102.895 17.6644L102.895 18.5382L103.344 17.5054C103.195 17.5624 103.046 17.6154 102.895 17.6644L102.895 14.5027L99.8125 14.5027L99.8125 12.7048L104.895 12.7048L104.895 19.1885C104.284 19.5072 103.555 19.7559 102.708 19.9344C101.861 20.1129 101.014 20.2021 100.167 20.2021ZM30.5015 20.0109L30.5015 6.52734L32.9116 6.52734L32.9116 12.4945L32.949 12.4945L38.6851 6.52734L41.5996 6.52734L35.2554 13.004L34.7427 12.4753L34.7241 13.5464L35.2554 13.004L42.0481 20.0109L39.04 20.0109L32.949 13.7759L32.9116 13.7759L32.9116 20.0109L30.5015 20.0109ZM63.5437 20.0109L68.5767 13.1534L68.9619 13.6803L68.9619 12.6284L68.5767 13.1534L63.7305 6.52734L66.5518 6.52734L69.9607 11.3575L69.5786 11.9016L70.3447 11.9016L69.9607 11.3575L73.3528 6.52734L76.1926 6.52734L71.3291 13.1534L70.9426 12.6284L70.9426 13.6803L71.3291 13.1534L76.3794 20.0109L73.5396 20.0109L69.9521 14.9659L70.3633 14.3879L69.5413 14.3879L69.9521 14.9659L66.365 20.0109L63.5437 20.0109ZM53.7058 20.0109L53.7058 12.7622C53.7058 12.3669 53.6934 11.9653 53.6685 11.5574C53.6436 11.1493 53.6062 10.7477 53.5564 10.3524L55.8171 10.3524L55.9678 11.8936C55.8999 12.0115 55.8372 12.1353 55.7798 12.265L56.0042 12.265L55.9678 11.8936C56.2537 11.3969 56.6333 11.0043 57.1064 10.7158Q57.2461 10.6274 57.3931 10.5532L57.3933 10.5531Q58.1692 10.1611 59.1428 10.1611C60.2515 10.1611 61.0859 10.48 61.6465 11.1174Q62.4873 12.0737 62.4873 14.1011L62.4873 20.0109L60.1519 20.0109L60.1519 14.2158C60.1519 13.438 60.0024 12.8834 59.7034 12.5519C59.417 12.2076 58.981 12.0355 58.3955 12.0355Q57.6157 12.0355 57.0679 12.3922Q56.8547 12.531 56.6768 12.724C56.2532 13.183 56.0415 13.795 56.0415 14.5601L56.0415 20.0109L53.7058 20.0109ZM82.3704 20.0109L82.3704 12.7622C82.3704 12.3669 82.3579 11.9653 82.333 11.5574C82.3081 11.1493 82.2708 10.7477 82.2209 10.3524L84.4817 10.3524L84.6321 11.8936C84.5642 12.0115 84.5015 12.1353 84.4443 12.265L84.6685 12.265L84.6321 11.8936C84.9182 11.3969 85.2976 11.0043 85.7708 10.7158C86.3562 10.3461 87.0352 10.1611 87.8074 10.1611Q89.2366 10.1611 90.0586 10.8678L90.0588 10.8679Q90.1929 10.9833 90.311 11.1174C90.8713 11.755 91.1516 12.7495 91.1516 14.1011L91.1516 20.0109L88.8162 20.0109L88.8162 14.2158C88.8162 13.438 88.6667 12.8834 88.3679 12.5519C88.0813 12.2076 87.6453 12.0355 87.0601 12.0355C86.3374 12.0355 85.7646 12.265 85.3411 12.724Q85.2507 12.8219 85.1731 12.9292L85.1729 12.9294Q84.7058 13.576 84.7058 14.5601L84.7058 20.0109L82.3704 20.0109ZM111.719 20.2021C110.747 20.2021 109.906 19.9982 109.196 19.5901C108.486 19.1821 107.932 18.6019 107.533 17.8497C107.147 17.0974 106.954 16.2048 106.954 15.1721C106.954 14.1393 107.147 13.2532 107.533 12.5137C107.932 11.7614 108.486 11.1812 109.196 10.7732C109.906 10.3651 110.747 10.1611 111.719 10.1611C112.69 10.1611 113.531 10.3651 114.241 10.7732C114.963 11.1812 115.517 11.7614 115.904 12.5137C116.302 13.2532 116.501 14.1393 116.501 15.1721C116.501 16.2048 116.302 17.0974 115.904 17.8497C115.517 18.6019 114.963 19.1821 114.241 19.5901C113.531 19.9982 112.69 20.2021 111.719 20.2021ZM45.9763 20.2021C44.8179 20.2021 43.9524 19.877 43.3794 19.2267Q42.5198 18.2513 42.5198 16.2432L42.5198 10.3524L44.8552 10.3524L44.8552 16.224C44.8552 16.938 44.9985 17.4672 45.2852 17.8114Q45.3374 17.8719 45.3962 17.9252L45.3962 17.9252Q45.8218 18.3087 46.593 18.3087C47.2532 18.3087 47.7886 18.0792 48.1997 17.6202Q48.3069 17.5042 48.396 17.3755Q48.835 16.7415 48.835 15.8032L48.835 10.3524L51.1704 10.3524L51.1704 20.0109L48.8911 20.0109L48.8911 18.5793C48.9893 18.4117 49.0764 18.2323 49.1526 18.0409L48.8911 18.0409L48.8911 18.5793C48.6357 19.0153 48.3057 19.3712 47.9009 19.6475C47.3528 20.0172 46.7112 20.2021 45.9763 20.2021ZM77.4985 20.0109L77.4985 10.3524L79.8342 10.3524L79.8342 20.0109L77.4985 20.0109ZM111.719 18.3661C112.453 18.3661 113.039 18.1047 113.475 17.5819Q114.129 16.7787 114.129 15.1721Q114.129 13.5656 113.475 12.7814Q113.217 12.4723 112.889 12.285Q112.386 11.9972 111.719 11.9972C110.983 11.9972 110.398 12.2587 109.962 12.7814C109.526 13.3042 109.308 14.1011 109.308 15.1721C109.308 16.2432 109.526 17.0464 109.962 17.5819C110.398 18.1047 110.983 18.3661 111.719 18.3661Z" fill="#14171F" fill-opacity="1.000000" fill-rule="evenodd"/>
</svg>
