<svg width="32.000000" height="32.000000" viewBox="0 0 32 32" fill="none" xmlns="http://www.w3.org/2000/svg" xmlns:xlink="http://www.w3.org/1999/xlink">
	<desc>
			Created with Pixso.
	</desc>
	<defs>
		<clipPath id="clip7_984">
			<rect id="Frame 3" width="32.000000" height="32.000000" fill="white" fill-opacity="0"/>
		</clipPath>
	</defs>
	<g clip-path="url(#clip7_984)">
		<circle id="Ellipse 9" cx="16.000000" cy="16.000000" r="14.000000" fill="#25D366" fill-opacity="1.000000"/>
		<path id="Vector" d="M22.4497 12.9575C22.0942 12.1721 21.584 11.467 20.9365 10.8594C20.2886 10.2576 19.5376 9.78174 18.7007 9.44922C17.835 9.10535 16.918 8.93335 15.9722 8.93335C15.0264 8.93335 14.1089 9.10535 13.2437 9.44922C12.4067 9.78174 11.6558 10.2518 11.0078 10.8594C10.3604 11.467 9.8501 12.1721 9.49463 12.9575C9.12744 13.7715 8.93848 14.6428 8.93848 15.537C8.93848 17.1019 9.52295 18.6039 10.5952 19.7961L10.022 22.9203L13.0713 21.5618C13.9829 21.9515 14.9517 22.1465 15.9663 22.1465C16.9121 22.1465 17.8296 21.9745 18.6948 21.6305C19.5317 21.2981 20.2827 20.828 20.9307 20.2203C21.5781 19.6128 22.0884 18.9077 22.4438 18.1223C22.811 17.3083 23 16.437 23 15.5427C23.0059 14.6428 22.8164 13.7772 22.4497 12.9575Z" fill="#FFFFFF" fill-opacity="1.000000" fill-rule="nonzero"/>
		<path id="Vector" d="M18.8267 16.8555C18.5283 16.7064 18.3105 16.6147 18.1558 16.5574C18.0586 16.5231 17.8291 16.4198 17.749 16.4829C17.4966 16.6893 17.2275 17.2739 16.9409 17.3829C16.23 17.2454 15.5708 16.7581 15.0547 16.2594C14.8257 16.0415 14.4014 15.4224 14.3096 15.2562C14.2925 15.0842 14.6021 14.8549 14.6709 14.723C15.0259 14.3218 14.7568 14.0696 14.7109 13.9033C14.6304 13.7313 14.4932 13.4219 14.3726 13.1696C14.2695 13.0034 14.2466 12.7568 14.063 12.6652C13.2832 12.2639 12.8364 13.0664 12.6528 13.4849C11.5464 16.1504 18.1963 21.2235 19.5488 17.7268C19.6177 17.423 19.5889 17.3083 19.4858 17.1708C19.2793 17.0275 19.0386 16.9645 18.8267 16.8555Z" fill="#25D366" fill-opacity="1.000000" fill-rule="nonzero"/>
	</g>
</svg>
