<svg width="72.000000" height="72.000000" viewBox="0 0 72 72" fill="none" xmlns="http://www.w3.org/2000/svg" xmlns:xlink="http://www.w3.org/1999/xlink">
	<desc>
			Created with Pixso.
	</desc>
	<defs/>
	<path id="primary" d="M68.3999 64.8001L54 64.8001L54 3.60101C53.9973 3.02988 53.8589 2.46759 53.5959 1.96054C53.333 1.45352 52.9534 1.01633 52.488 0.685059C52.0264 0.350525 51.4919 0.130402 50.9287 0.0427856C50.3655 -0.0448303 49.7893 0.00256348 49.248 0.181061L8.53198 13.7529C7.09521 14.2297 5.84521 15.1473 4.95996 16.3752C4.07446 17.6032 3.59863 19.0789 3.6001 20.5928L3.6001 64.8001C2.64526 64.8001 1.72949 65.1794 1.05444 65.8545C0.379395 66.5296 0 67.4453 0 68.4001C0 69.3548 0.379395 70.2705 1.05444 70.9456C1.72949 71.6207 2.64526 72 3.6001 72L68.3999 72C69.3547 72 70.2705 71.6207 70.9456 70.9456C71.6206 70.2705 72 69.3548 72 68.4001C72 67.4453 71.6206 66.5296 70.9456 65.8545C70.2705 65.1794 69.3547 64.8001 68.3999 64.8001Z" fill="#323847" fill-opacity="1.000000" fill-rule="nonzero"/>
</svg>
