<svg width="48.000000" height="48.000000" viewBox="0 0 48 48" fill="none" xmlns="http://www.w3.org/2000/svg" xmlns:xlink="http://www.w3.org/1999/xlink">
	<desc>
			Created with Pixso.
	</desc>
	<defs>
		<clipPath id="clip126_1753">
			<rect id="Frame 56/Variant3" width="48.000000" height="48.000000" fill="white" fill-opacity="0"/>
		</clipPath>
	</defs>
	<rect id="Frame 56/Variant3" width="48.000000" height="48.000000" fill="#FFFFFF" fill-opacity="0"/>
	<g clip-path="url(#clip126_1753)">
		<path id="secondary" d="M36.5 17L31.25 17C30.7856 17 30.3408 17.1881 30.0127 17.523C29.6846 17.8579 29.5 18.3121 29.5 18.7857L29.5 40.2143C29.5 40.6879 29.6846 41.1421 30.0127 41.477C30.3408 41.8119 30.7856 42 31.25 42L38.25 42C38.7144 42 39.1592 41.8119 39.4873 41.477C39.8154 41.1421 40 40.6879 40 40.2143L40 20.5714C40 19.6242 39.6313 18.7158 38.9751 18.0461C38.3184 17.3763 37.4282 17 36.5 17Z" fill="#69C647" fill-opacity="1.000000" fill-rule="nonzero"/>
		<path id="primary" d="M40.2002 38.4001L33 38.4001L33 7.80051C32.9985 7.51494 32.9292 7.2338 32.7979 6.98027C32.6665 6.72676 32.4766 6.50816 32.2441 6.34253C32.0132 6.17526 31.7461 6.0652 31.4644 6.02139C31.1826 5.97758 30.8945 6.00128 30.624 6.09053L10.2661 12.8764C9.54736 13.1149 8.92285 13.5737 8.47998 14.1876C8.03711 14.8016 7.79932 15.5395 7.7998 16.2964L7.7998 38.4001C7.32275 38.4001 6.86475 38.5897 6.52734 38.9272C6.18945 39.2648 6 39.7226 6 40.2C6 40.6774 6.18945 41.1352 6.52734 41.4728C6.86475 41.8104 7.32275 42 7.7998 42L40.2002 42C40.6772 42 41.1353 41.8104 41.4727 41.4728C41.8105 41.1352 42 40.6774 42 40.2C42 39.7226 41.8105 39.2648 41.4727 38.9272C41.1353 38.5897 40.6772 38.4001 40.2002 38.4001Z" fill="#323847" fill-opacity="1.000000" fill-rule="nonzero"/>
		<path id="secondary" d="M24.1665 27.5L16.8335 27.5C16.3472 27.5 15.8809 27.6932 15.5371 28.037C15.1934 28.3808 15 28.8471 15 29.3333L15 38.5L26 38.5L26 29.3333C26 28.8471 25.8066 28.3808 25.4629 28.037C25.1191 27.6932 24.6528 27.5 24.1665 27.5Z" fill="#69C647" fill-opacity="1.000000" fill-rule="nonzero"/>
	</g>
</svg>
