<svg width="96.000000" height="96.000000" viewBox="0 0 96 96" fill="none" xmlns="http://www.w3.org/2000/svg" xmlns:xlink="http://www.w3.org/1999/xlink">
	<desc>
			Created with Pixso.
	</desc>
	<defs>
		<clipPath id="clip29_430">
			<rect id="invoice dollar" width="96.000000" height="96.000000" fill="white" fill-opacity="0"/>
		</clipPath>
	</defs>
	<rect id="invoice dollar" width="96.000000" height="96.000000" fill="#FFFFFF" fill-opacity="0"/>
	<g clip-path="url(#clip29_430)">
		<path id="primary" d="M51.5 41C51.5049 36.0409 53.2646 31.2436 56.4678 27.4577C59.6709 23.6718 64.1104 21.1415 69 20.315L69 20C69 18.1435 68.2627 16.363 66.9497 15.0503C65.6372 13.7375 63.8564 13 62 13L20 13C18.1436 13 16.3628 13.7375 15.0503 15.0503C13.7373 16.363 13 18.1435 13 20L13 76C13 77.8565 13.7373 79.637 15.0503 80.9497C16.3628 82.2625 18.1436 83 20 83L62 83C63.8564 83 65.6372 82.2625 66.9497 80.9497C68.2627 79.637 69 77.8565 69 76L69 61.685C64.1104 60.8585 59.6709 58.3282 56.4678 54.5423C53.2646 50.7564 51.5049 45.9591 51.5 41Z" fill="#323847" fill-opacity="1.000000" fill-rule="nonzero"/>
		<path id="secondary" d="M45 51.5C45 50.5717 44.6313 49.6815 43.9751 49.0251C43.3184 48.3688 42.4282 48 41.5 48L27.5 48C26.5718 48 25.6816 48.3688 25.0249 49.0251C24.3687 49.6815 24 50.5717 24 51.5C24 52.4283 24.3687 53.3185 25.0249 53.9749C25.6816 54.6312 26.5718 55 27.5 55L41.5 55C42.4282 55 43.3184 54.6312 43.9751 53.9749C44.6313 53.3185 45 52.4283 45 51.5ZM52 65.5C52 64.5717 51.6313 63.6815 50.9751 63.0251C50.3184 62.3687 49.4282 62 48.5 62L27.5 62C26.5718 62 25.6816 62.3687 25.0249 63.0251C24.3687 63.6815 24 64.5717 24 65.5C24 66.4283 24.3687 67.3185 25.0249 67.9749C25.6816 68.6313 26.5718 69 27.5 69L48.5 69C49.4282 69 50.3184 68.6313 50.9751 67.9749C51.6313 67.3185 52 66.4283 52 65.5Z" fill="#69C647" fill-opacity="1.000000" fill-rule="nonzero"/>
		<path id="icon" d="M67.978 27.7928L66.1118 28.8424L77.2607 35.906L82.603 32.7057C82.3516 32.5073 82.0835 32.3271 81.7993 32.1675L74.022 27.7928C72.1426 26.7357 69.8574 26.7357 67.978 27.7928ZM60.2007 32.1675L64.0562 29.9988C64.1372 30.2549 64.3052 30.4843 64.5479 30.6382L74.9995 37.2604L73.5063 38.1549L73.5005 38.1586C71.9429 39.1048 70.0034 39.1323 68.4204 38.2307L59.1274 32.9382C59.126 32.9372 59.124 32.9363 59.1226 32.9353C59.4502 32.6448 59.8105 32.3867 60.2007 32.1675ZM72.1665 54.8354L72.1665 41.1396C73.0474 40.9845 73.9062 40.6665 74.6978 40.1863L74.7007 40.1843L84.0386 34.5907C84.0806 34.5657 84.1201 34.5384 84.1577 34.5091C84.7002 35.4542 85 36.5423 85 37.6744L85 44.4351C85 46.7229 83.7749 48.8309 81.7993 49.942L74.022 54.3167C73.4312 54.6488 72.8008 54.8766 72.1553 55C72.1626 54.9462 72.1665 54.8913 72.1665 54.8354ZM57.7002 34.7713C57.2476 35.6531 57 36.6455 57 37.6744L57 44.4351C57 46.7229 58.2251 48.8309 60.2007 49.942L67.978 54.3167C68.5688 54.6488 69.1992 54.8766 69.8447 55C69.8374 54.9462 69.8335 54.8913 69.8335 54.8354L69.8335 41.1723C68.9482 41.0418 68.0811 40.7478 67.2764 40.2897L57.9834 34.9972C57.875 34.9355 57.7803 34.8588 57.7002 34.7713Z" fill="#69C647" fill-opacity="1.000000" fill-rule="evenodd"/>
	</g>
</svg>
