<svg width="96.000000" height="96.000000" viewBox="0 0 96 96" fill="none" xmlns="http://www.w3.org/2000/svg" xmlns:xlink="http://www.w3.org/1999/xlink">
	<desc>
			Created with Pixso.
	</desc>
	<defs>
		<clipPath id="clip29_408">
			<rect id="headset alt" width="96.000000" height="96.000000" fill="white" fill-opacity="0"/>
		</clipPath>
	</defs>
	<rect id="headset alt" width="96.000000" height="96.000000" fill="#FFFFFF" fill-opacity="0"/>
	<g clip-path="url(#clip29_408)">
		<path id="secondary" d="M59.7808 81L47.7129 81C46.7285 81 45.7837 80.6207 45.0874 79.9456C44.3911 79.2704 44 78.3548 44 77.4C44 76.4452 44.3911 75.5295 45.0874 74.8544C45.7837 74.1793 46.7285 73.8 47.7129 73.8L59.7808 73.8C61.3032 73.8 62.5654 72.144 62.5654 70.2L62.5654 66.6C62.5654 65.6452 62.9565 64.7296 63.6528 64.0544C64.3496 63.3793 65.2939 63 66.2788 63C67.2632 63 68.208 63.3793 68.9043 64.0544C69.6006 64.7296 69.9917 65.6452 69.9917 66.6L69.9917 70.2C70.1025 72.9419 69.0918 75.6153 67.1792 77.6381C65.2671 79.6608 62.6079 80.8692 59.7808 81Z" fill="#69C647" fill-opacity="1.000000" fill-rule="nonzero"/>
		<path id="primary" d="M73.1055 22.1046C68.3115 16.8389 61.9839 13.2122 55.0166 11.737C48.0493 10.2619 40.7944 11.0128 34.2769 13.8839C27.7598 16.7548 22.3096 21.6006 18.6968 27.7366C15.0835 33.8725 13.4907 40.9884 14.1426 48.0786L14.8062 55.4471C14.8545 59.33 16.4341 63.0368 19.2012 65.7619C21.9683 68.4869 25.6992 70.01 29.5835 69.9999L33.2686 69.9999C35.2236 69.9999 37.0981 69.2236 38.4805 67.8418C39.8623 66.4599 40.6392 64.5857 40.6392 62.6314L40.6392 44.2102C40.6392 42.2559 39.8623 40.3817 38.4805 38.9998C37.0981 37.618 35.2236 36.8417 33.2686 36.8417L29.5835 36.8417C26.9844 36.8798 24.4419 37.6042 22.2134 38.9417C23.5801 33.1202 26.8691 27.929 31.5493 24.2057C36.2295 20.4824 42.0283 18.4444 48.0093 18.4204C53.9907 18.4444 59.7891 20.4824 64.4692 24.2057C69.1499 27.929 72.4385 33.1202 73.8057 38.9417C71.5767 37.6042 69.0342 36.8798 66.4351 36.8417L62.75 36.8417C60.7954 36.8417 58.9204 37.618 57.5386 38.9998C56.1562 40.3817 55.3799 42.2559 55.3799 44.2102L55.3799 62.6314C55.3799 64.5857 56.1562 66.4599 57.5386 67.8418C58.9204 69.2236 60.7954 69.9999 62.75 69.9999L66.4351 69.9999C70.269 70.0017 73.9531 68.5099 76.7051 65.841C79.457 63.1722 81.0605 59.5364 81.1758 55.705L81.8394 48.3365C82.3018 43.5964 81.7637 38.812 80.2593 34.2932C78.7544 29.7743 76.3174 25.6218 73.1055 22.1046Z" fill="#323847" fill-opacity="1.000000" fill-rule="nonzero"/>
	</g>
</svg>
