<svg width="96.000000" height="96.000000" viewBox="0 0 96 96" fill="none" xmlns="http://www.w3.org/2000/svg" xmlns:xlink="http://www.w3.org/1999/xlink">
	<desc>
			Created with Pixso.
	</desc>
	<defs>
		<clipPath id="clip29_421">
			<rect id="Frame 56/Variant3" width="96.000000" height="96.000000" fill="white" fill-opacity="0"/>
		</clipPath>
	</defs>
	<rect id="Frame 56/Variant3" width="96.000000" height="96.000000" fill="#FFFFFF" fill-opacity="0"/>
	<g clip-path="url(#clip29_421)">
		<path id="primary" d="M81.9199 39.36L79.2002 38.68L76.6802 29.76C76.1953 28.0983 75.1846 26.6386 73.7998 25.6C72.415 24.5614 70.731 24 69 24L56 24C56 21.8783 55.1572 19.8434 53.6567 18.3431C52.1567 16.8429 50.1216 16 48 16L16 16C13.8784 16 11.8433 16.8429 10.3433 18.3431C8.84277 19.8434 8 21.8783 8 24L8 64C8 66.1217 8.84277 68.1566 10.3433 69.6569C11.8433 71.1571 13.8784 72 16 72L80 72C82.1216 72 84.1567 71.1571 85.6567 69.6569C87.1572 68.1566 88 66.1217 88 64L88 47.12C87.9985 45.3334 87.3994 43.5986 86.2974 42.1922C85.1953 40.7858 83.6543 39.7888 81.9199 39.36Z" fill="#323847" fill-opacity="1.000000" fill-rule="nonzero"/>
		<path id="secondary" d="M40 68C40 70.3734 39.2964 72.6935 37.9775 74.6668C36.6592 76.6402 34.7852 78.1783 32.5923 79.0865C30.3994 79.9948 27.9868 80.2325 25.6587 79.7694C23.3311 79.3064 21.1929 78.1635 19.5146 76.4853C17.8364 74.8071 16.6938 72.6689 16.2305 70.3411C15.7676 68.0133 16.0054 65.6005 16.9136 63.4078C17.8218 61.2151 19.3599 59.3409 21.333 58.0224C23.3066 56.7038 25.6265 56 28 56C31.1826 56 34.2349 57.2643 36.4854 59.5147C38.7358 61.7651 40 64.8174 40 68ZM68 56C65.6265 56 63.3066 56.7038 61.333 58.0224C59.3599 59.3409 57.8218 61.2151 56.9136 63.4078C56.0054 65.6005 55.7676 68.0133 56.2305 70.3411C56.6934 72.6689 57.8364 74.8071 59.5146 76.4853C61.1929 78.1635 63.3311 79.3064 65.6587 79.7694C67.9868 80.2325 70.3994 79.9948 72.5923 79.0865C74.7852 78.1783 76.6592 76.6402 77.9775 74.6668C79.2964 72.6935 80 70.3734 80 68C80 64.8174 78.7358 61.7651 76.4854 59.5147C74.2349 57.2643 71.1826 56 68 56ZM44 28L20 28C18.939 28 17.9219 28.4214 17.1714 29.1716C16.4214 29.9217 16 30.9391 16 32C16 33.0609 16.4214 34.0783 17.1714 34.8284C17.9219 35.5786 18.939 36 20 36L44 36C45.061 36 46.0781 35.5786 46.8286 34.8284C47.5786 34.0783 48 33.0609 48 32C48 30.9391 47.5786 29.9217 46.8286 29.1716C46.0781 28.4214 45.061 28 44 28Z" fill="#69C647" fill-opacity="1.000000" fill-rule="nonzero"/>
	</g>
</svg>
