<svg width="96.000000" height="96.000000" viewBox="0 0 96 96" fill="none" xmlns="http://www.w3.org/2000/svg" xmlns:xlink="http://www.w3.org/1999/xlink">
	<desc>
			Created with Pixso.
	</desc>
	<defs>
		<clipPath id="clip29_252">
			<rect id="Frame 59/clipboard edit left-2" width="96.000000" height="96.000000" fill="white" fill-opacity="0"/>
		</clipPath>
	</defs>
	<rect id="Frame 59/clipboard edit left-2" width="96.000000" height="96.000000" fill="#FFFFFF" fill-opacity="0"/>
	<g clip-path="url(#clip29_252)">
		<path id="primary" d="M34 13L76 13C79.8662 13 83 16.134 83 20L83 76C83 79.866 79.8662 83 76 83L34 83C30.1338 83 27 79.866 27 76L27 20C27 16.134 30.1338 13 34 13Z" fill="#323847" fill-opacity="1.000000" fill-rule="evenodd"/>
		<path id="secondary" d="M69 13L40.9927 13L40.9927 20C40.9927 21.8565 41.7305 23.637 43.0435 24.9497C44.3564 26.2625 46.1377 27 47.9946 27L61.998 27C63.855 27 65.6362 26.2625 66.9492 24.9497C68.2622 23.637 69 21.8565 69 20L69 13ZM23.8032 35.015L46.9795 58.15C47.6191 58.8207 47.9814 59.7083 47.9946 60.6349L47.9946 65.4999C47.9946 66.4282 47.6255 67.3185 46.9692 67.9748C46.3125 68.6312 45.4224 68.9999 44.4937 68.9999L39.6274 68.9999C39.1665 69.0026 38.71 68.9143 38.2832 68.7401C37.8569 68.566 37.4688 68.3093 37.1416 67.9849L14.001 44.815C13.3594 44.1607 13 43.2811 13 42.365C13 41.4488 13.3594 40.5692 14.001 39.915L18.9019 35.015C19.5566 34.3737 20.4365 34.0145 21.3525 34.0145C22.269 34.0145 23.1489 34.3737 23.8032 35.015Z" fill="#69C647" fill-opacity="1.000000" fill-rule="nonzero"/>
	</g>
</svg>
