<svg width="96.000000" height="96.000000" viewBox="0 0 96 96" fill="none" xmlns="http://www.w3.org/2000/svg" xmlns:xlink="http://www.w3.org/1999/xlink">
	<desc>
			Created with Pixso.
	</desc>
	<defs>
		<clipPath id="clip29_273">
			<rect id="Frame 56/iconixto/solid/Property 34" width="96.000000" height="96.000000" fill="white" fill-opacity="0"/>
		</clipPath>
	</defs>
	<rect id="Frame 56/iconixto/solid/Property 34" width="96.000000" height="96.000000" fill="#FFFFFF" fill-opacity="0"/>
	<g clip-path="url(#clip29_273)">
		<path id="Vector" d="M28.4404 17.1059L30.2651 16.1021C32.9365 14.6326 36.1851 14.6326 38.8569 16.1021L49.9136 22.1841C50.0483 22.2581 50.1802 22.3353 50.3101 22.4156L43.4736 26.4205L28.4404 17.1059ZM19.2085 22.1841L23.9556 19.5729C24.1436 20.0451 24.481 20.464 24.9487 20.754L38.6523 29.2448L37.7021 29.8014L37.689 29.8092C35.7305 30.9728 33.2915 31.0067 31.3008 29.8978L18.3794 22.7013C18.644 22.5152 18.9204 22.3424 19.2085 22.1841ZM47.8066 50.5853C47.6313 48.8555 46.4497 47.3525 44.7354 46.7332L37.0488 43.957L37.0488 35.3264C38.1577 35.0645 39.2354 34.6347 40.2417 34.0377L40.249 34.0335L53.519 26.2596C53.5645 26.233 53.6089 26.2051 53.6523 26.176C54.1782 27.3062 54.4634 28.5526 54.4634 29.84L54.4634 39.2391C54.4634 42.0825 53.0718 44.726 50.77 46.3582C50.9556 46.619 51.1953 46.8484 51.4854 47.0281L65.189 55.5189L64.2388 56.0756L64.2256 56.0833C62.2671 57.247 59.8281 57.2808 57.8374 56.172L47.8066 50.5853ZM14.6587 29.84C14.6587 28.7079 14.8794 27.6074 15.29 26.5899C15.4009 26.6799 15.521 26.7617 15.6504 26.8337L28.8613 34.1915C29.8794 34.7585 30.9629 35.1578 32.0732 35.3902L32.0732 42.1599L30.4302 41.5666C29.3511 41.1767 28.1611 41.1767 27.082 41.5666L17.0229 45.1997C15.5259 43.6034 14.6587 41.4835 14.6587 39.2391L14.6587 29.84ZM54.9771 43.38L56.8018 42.3763C59.4731 40.9068 62.7217 40.9068 65.3936 42.3763L76.4502 48.4583C76.585 48.5323 76.7168 48.6095 76.8467 48.6897L70.0103 52.6946L54.9771 43.38ZM15.5562 49.7887L27.373 45.6157C28.2646 45.3008 29.2476 45.3008 30.1392 45.6157L41.9561 49.7887C43.4937 50.3316 44.5122 51.7154 44.5122 53.2617L44.5122 63.6742C44.5122 70.9807 34.7314 77.1358 30.582 79.4182C29.4531 80.0393 28.0786 80.0085 26.9756 79.347C22.853 76.8743 13 70.2742 13 63.6742L13 53.2616C13 51.7154 14.0186 50.3317 15.5562 49.7887ZM63.5854 79.9723L63.5854 61.6005C64.6943 61.3386 65.772 60.9089 66.7783 60.3118L66.7856 60.3077L80.0557 52.5338C80.1011 52.5071 80.1455 52.4792 80.189 52.4502C80.7148 53.5803 81 54.8268 81 56.1142L81 65.5133C81 68.6939 79.2583 71.6245 76.4502 73.1692L65.3936 79.2512C64.814 79.5699 64.207 79.8195 63.585 80L63.5854 79.9723ZM44.5605 72.3883C46.5078 69.81 47.8291 66.9469 47.8291 63.9247L47.8291 56.2502L55.3979 60.4657C56.416 61.0326 57.4995 61.432 58.6099 61.6643L58.6099 79.9723L58.6099 80C57.9878 79.8195 57.3813 79.5699 56.8018 79.2512L45.7451 73.1692C45.3257 72.9385 44.9302 72.677 44.5605 72.3883Z" fill="#323847" fill-opacity="1.000000" fill-rule="evenodd"/>
		<path id="Vector" d="M34.2529 59L28.5962 64.6569C27.8149 65.4379 26.5488 65.4379 25.7676 64.6569L24 62.8891" stroke="#69C647" stroke-opacity="1.000000" stroke-width="3.000000" stroke-linecap="round"/>
	</g>
</svg>
