<svg width="160.000000" height="43.000000" viewBox="0 0 160 43" fill="none" xmlns="http://www.w3.org/2000/svg" xmlns:xlink="http://www.w3.org/1999/xlink">
	<desc>
			Created with Pixso.
	</desc>
	<defs/>
	<path id="Vector" d="M58.3838 18.3164C57.8623 18.3164 57.4414 18.1602 57.1201 17.8467C56.8193 17.5342 56.6689 17.1328 56.6689 16.6436C56.6689 16.1543 56.8301 15.7627 57.1504 15.4697Q57.2988 15.3252 57.4717 15.2256Q57.8633 15 58.3838 15C58.8447 15 59.2461 15.1562 59.5869 15.4697Q59.8711 15.7158 60.0059 16.0273Q60.1279 16.3086 60.1279 16.6436C60.1279 17.1328 59.957 17.5342 59.6162 17.8467C59.2754 18.1602 58.8652 18.3164 58.3838 18.3164ZM45.6162 36.249C44.0322 36.249 42.7295 35.9072 41.707 35.2227C40.6846 34.5176 39.9229 33.5791 39.4209 32.4043Q38.6699 30.6143 38.6699 28.3838Q38.6699 26.1533 39.4209 24.3623C39.9229 23.1494 40.6943 22.1904 41.7373 21.4863C42.7793 20.7822 44.1123 20.4297 45.7363 20.4297C46.3584 20.4297 46.9795 20.5078 47.6016 20.665C48.2432 20.8018 48.8447 21.0264 49.4053 21.3398C49.9668 21.6328 50.4482 22.0342 50.8496 22.543L50.8496 15.3232L53.4053 15.3232L53.4053 36.0732L50.9697 36.0732L50.8496 33.7549C50.4883 34.3418 50.0273 34.8213 49.4658 35.1934C48.9248 35.5449 48.3232 35.8096 47.6611 35.9854C47 36.1611 46.3184 36.249 45.6162 36.249ZM7.57812 36.0732C6.37598 36.0732 5.40332 35.8975 4.66113 35.5449Q4.16406 35.3018 3.78711 34.9355Q3.34375 34.5039 3.06738 33.9014C2.74707 33.1582 2.58594 32.2188 2.58594 31.084L2.58594 22.8076L0 22.8076L0 20.6055L2.58594 20.6055L2.58594 15.998L5.14258 15.998L5.14258 20.6055L9.38281 20.6055L9.38281 22.8076L5.14258 22.8076L5.14258 30.8193Q5.14258 32.4043 5.71387 33.168Q6.31543 33.9014 8.12012 33.9014L9.29297 33.9014L9.29297 36.0732L7.57812 36.0732ZM11.9727 36.0732L11.9727 20.6055L14.4385 20.6055L14.5586 23.0127Q15.1602 22.1025 15.9424 21.5449Q16.2529 21.332 16.585 21.1611L16.585 21.1611Q17.1221 20.8867 17.7168 20.7236Q18.709 20.4297 19.8516 20.4297L20.6641 20.4297L20.6641 22.7773L19.7314 22.7773C18.4883 22.7773 17.4756 23.042 16.6943 23.5703C15.9326 24.0791 15.3809 24.7734 15.04 25.6543Q14.5283 26.9453 14.5283 28.5303L14.5283 36.0732L11.9727 36.0732ZM27.9727 36.249C27.251 36.249 26.5498 36.1611 25.8682 35.9854C25.2061 35.79 24.6045 35.5059 24.0635 35.1338C23.542 34.7432 23.1211 34.2637 22.8008 33.6963C22.5 33.1094 22.3496 32.4336 22.3496 31.6709C22.3496 30.79 22.5098 30.0469 22.8311 29.4404C23.1719 28.834 23.6221 28.3545 24.1836 28.002C24.7451 27.6504 25.3965 27.3955 26.1387 27.2393Q27.251 27.0039 28.4541 27.0039L33.1152 27.0039C33.1152 26.124 32.9854 25.3604 32.7246 24.7148C32.4844 24.0693 32.083 23.5703 31.5215 23.2178C30.96 22.8467 30.2188 22.6602 29.2959 22.6602C28.7354 22.6602 28.2139 22.7188 27.7324 22.8369C27.251 22.9541 26.8408 23.1396 26.5 23.3945C26.1592 23.6484 25.9082 23.9912 25.748 24.4219L23.0107 24.4219C23.1514 23.7168 23.4219 23.1201 23.8232 22.6309Q24.1387 22.249 24.5146 21.9414Q24.8906 21.6328 25.3271 21.3984C25.9277 21.0654 26.5693 20.8213 27.251 20.665C27.9326 20.5078 28.6143 20.4297 29.2959 20.4297C31.582 20.4297 33.2061 21.085 34.168 22.3965C35.1309 23.707 35.6113 25.4775 35.6113 27.709L35.6113 36.0732L33.4766 36.0732L33.3262 34.1064C32.8848 34.6943 32.3535 35.1436 31.7324 35.457C31.1104 35.7705 30.4688 35.9756 29.8076 36.0732C29.166 36.1904 28.5547 36.249 27.9727 36.249ZM63.3975 36.0732L63.3975 20.6055L65.8633 20.6055L65.9844 22.9541C66.3447 22.3867 66.8057 21.917 67.3672 21.5449C67.9287 21.1729 68.54 20.8994 69.2021 20.7236C69.8838 20.5273 70.5449 20.4297 71.1865 20.4297Q73.502 20.4297 74.7959 21.3691C75.6777 21.9951 76.2988 22.8467 76.6602 23.9229C77.041 24.9795 77.2314 26.1826 77.2314 27.5322L77.2314 36.0732L74.6748 36.0732L74.6748 28.208C74.6748 27.4834 74.625 26.7891 74.5244 26.124C74.4443 25.458 74.2646 24.8613 73.9834 24.333C73.7227 23.8047 73.3418 23.3945 72.8408 23.1006C72.3398 22.7871 71.668 22.6309 70.8262 22.6309C69.7832 22.6309 68.8916 22.915 68.1494 23.4824C67.4277 24.0498 66.876 24.8125 66.4951 25.7715C66.1348 26.7305 65.9541 27.8066 65.9541 29L65.9541 36.0732L63.3975 36.0732ZM87.752 43C86.6699 43 85.667 42.834 84.7451 42.501C83.8223 42.1875 83.041 41.6895 82.3994 41.0039C81.7578 40.3193 81.3262 39.4482 81.1064 38.3916L83.7529 38.3916C83.9131 38.9795 84.2139 39.4482 84.6543 39.8008C85.0957 40.1533 85.6074 40.3975 86.1885 40.5342C86.7695 40.6914 87.3418 40.7695 87.9023 40.7695C88.9854 40.7695 89.8574 40.5537 90.5195 40.124C91.2012 39.7129 91.6924 39.1357 91.9922 38.3916C92.293 37.668 92.4434 36.8369 92.4434 35.8975L92.4434 33.7549C92.1025 34.3418 91.6514 34.8213 91.0908 35.1934C90.5293 35.5645 89.918 35.8389 89.2559 36.0146C88.5947 36.1709 87.9131 36.249 87.2109 36.249C85.6074 36.249 84.2939 35.9072 83.2715 35.2227C82.249 34.5176 81.4873 33.5791 80.9854 32.4043C80.5049 31.2109 80.2637 29.8711 80.2637 28.3838C80.2637 26.8965 80.5146 25.5566 81.0156 24.3623Q81.4873 23.2227 82.2773 22.3818Q82.748 21.8809 83.332 21.4863C84.374 20.7822 85.707 20.4297 87.3311 20.4297Q88.7148 20.4297 90.1279 20.9287Q91.043 21.252 91.7441 21.833Q92.126 22.1494 92.4434 22.543L92.5645 20.6055L95 20.6055L95 35.9561C95 37.4043 94.7295 38.6562 94.1885 39.7129C93.667 40.7695 92.8652 41.5811 91.7822 42.1484C90.7197 42.7158 89.376 43 87.752 43ZM57.1201 36.0732L57.1201 20.6055L59.6768 20.6055L59.6768 36.0732L57.1201 36.0732ZM45.9775 34.0479C47.04 34.0479 47.9316 33.7842 48.6543 33.2559C49.376 32.7275 49.9268 32.0234 50.3076 31.1426C50.6885 30.2617 50.8789 29.3037 50.8789 28.2666C50.8789 27.1904 50.6885 26.2314 50.3076 25.3896C49.9473 24.5488 49.4053 23.8838 48.6836 23.3945C47.9619 22.9053 47.0498 22.6602 45.9473 22.6602C44.8047 22.6602 43.8818 22.915 43.1807 23.4238C42.499 23.9326 41.998 24.627 41.6768 25.5078C41.376 26.3682 41.2256 27.3369 41.2256 28.4131C41.2256 29.1953 41.3057 29.9297 41.4658 30.6143C41.6465 31.2793 41.917 31.876 42.2783 32.4043C42.6592 32.9131 43.1504 33.3145 43.752 33.6084C44.3535 33.9014 45.0947 34.0479 45.9775 34.0479ZM87.5723 34.0479C88.6348 34.0479 89.5264 33.7842 90.248 33.2559C90.9697 32.7275 91.5215 32.0234 91.9023 31.1426C92.2832 30.2617 92.4736 29.3037 92.4736 28.2666C92.4736 27.1904 92.2832 26.2314 91.9023 25.3896C91.542 24.5488 91 23.8838 90.2783 23.3945C89.5566 22.9053 88.6445 22.6602 87.542 22.6602C86.3994 22.6602 85.4766 22.915 84.7754 23.4238C84.0938 23.9326 83.5918 24.6172 83.2715 25.4775C82.9707 26.3389 82.8203 27.2979 82.8203 28.3545Q82.8203 29.998 83.3018 31.2891C83.6221 32.1504 84.1338 32.8252 84.835 33.3145C85.5371 33.8037 86.4492 34.0479 87.5723 34.0479ZM28.2139 34.0479C29.2158 34.0479 30.0781 33.8916 30.7998 33.5791C31.542 33.2461 32.1133 32.7666 32.5146 32.1406C32.915 31.5146 33.1152 30.751 33.1152 29.8516L33.1152 29.0879L30.3193 29.0879C29.6572 29.0879 29.0059 29.0977 28.3643 29.1172C27.7227 29.1367 27.1406 29.2148 26.6201 29.3525C26.0986 29.4893 25.6777 29.7236 25.3564 30.0566Q24.9053 30.5557 24.9053 31.4951C24.9053 32.082 25.0557 32.5615 25.3564 32.9326C25.6777 33.3047 26.0889 33.5889 26.5898 33.7842C27.1113 33.96 27.6523 34.0479 28.2139 34.0479Z" fill="#FFFFFF" fill-opacity="1.000000" fill-rule="evenodd"/>
	<path id="Vector" d="M141.638 0L141.638 20.9824L144.188 20.9824L144.188 0L141.638 0ZM135.372 30.876L135.372 9.89258L137.924 9.89258L137.924 30.876L135.372 30.876ZM129.106 17.3916C129.427 17.708 129.847 17.8662 130.367 17.8662C130.847 17.8662 131.257 17.708 131.598 17.3916C131.938 17.0752 132.107 16.6689 132.107 16.1748C132.107 15.7002 131.928 15.3037 131.567 14.9873C131.228 14.6709 130.827 14.5127 130.367 14.5127C129.866 14.5127 129.456 14.6709 129.136 14.9873Q128.987 15.125 128.885 15.291Q128.656 15.6621 128.656 16.1748C128.656 16.6689 128.806 17.0752 129.106 17.3916ZM113.812 35.8223L113.812 14.8389L116.363 14.8389L116.363 26.918L119.125 26.918L123.867 20.1816L126.749 20.1816L121.466 27.6309L127.199 35.8223L124.197 35.8223L119.425 29.1143L116.363 29.1143L116.363 35.8223L113.812 35.8223ZM102.412 35.792C103.152 35.9307 103.883 36 104.604 36C105.344 36 106.084 35.9307 106.824 35.792C107.585 35.6533 108.275 35.416 108.896 35.0801C109.516 34.7432 110.007 34.2783 110.366 33.6855C110.747 33.0918 110.937 32.3301 110.937 31.3994C110.937 30.7471 110.827 30.1729 110.606 29.6787C110.406 29.1836 110.086 28.7588 109.646 28.4023C109.226 28.0459 108.695 27.7695 108.056 27.5713C107.575 27.4131 106.915 27.2646 106.074 27.126C105.233 26.9678 104.464 26.8193 103.763 26.6807C103.223 26.5625 102.742 26.4141 102.322 26.2354C101.902 26.0576 101.572 25.8203 101.332 25.5234C101.111 25.2266 101.002 24.8604 101.002 24.4258C101.002 23.9502 101.122 23.5742 101.361 23.2979C101.602 23.001 101.902 22.7832 102.263 22.6445C102.622 22.4863 103.003 22.3877 103.403 22.3477C103.803 22.2881 104.163 22.2588 104.483 22.2588Q105.924 22.2588 106.854 22.8232C107.475 23.1787 107.855 23.6436 107.995 24.2178L110.366 24.2178C110.267 23.3076 109.946 22.5459 109.406 21.9326C108.866 21.2988 108.176 20.8242 107.335 20.5078C106.515 20.1719 105.584 20.0029 104.544 20.0029Q103.283 20.0029 102.172 20.2705C101.452 20.4482 100.812 20.7256 100.251 21.1016C99.6904 21.458 99.251 21.9229 98.9307 22.4961C98.6299 23.0498 98.4805 23.7129 98.4805 24.4844Q98.4805 25.1084 98.6006 25.6426C98.7002 25.9785 98.8301 26.2949 98.9902 26.5918C99.1504 26.8691 99.3408 27.126 99.5605 27.3633C99.8008 27.5811 100.062 27.7793 100.341 27.957C101.162 28.4521 102.103 28.7881 103.163 28.9658C104.243 29.1445 105.254 29.332 106.194 29.5303C106.654 29.6094 107.045 29.7383 107.365 29.916C107.686 30.0742 107.936 30.2822 108.115 30.5391C108.296 30.7959 108.386 31.123 108.386 31.5186C108.386 32.0527 108.256 32.4688 107.995 32.7646C107.755 33.0615 107.435 33.2891 107.035 33.4473C106.654 33.5859 106.254 33.6748 105.834 33.7148C105.414 33.7539 105.044 33.7744 104.724 33.7744C104.203 33.7744 103.653 33.7051 103.072 33.5664C102.513 33.4277 102.002 33.2002 101.542 32.8838C101.102 32.5479 100.781 32.1123 100.581 31.5781L98 31.5781C98.1201 32.4287 98.3906 33.1406 98.8105 33.7148Q99.1514 34.1807 99.5801 34.542Q99.9443 34.8486 100.371 35.0801C101.012 35.416 101.692 35.6533 102.412 35.792ZM153.667 36C152.946 36 152.216 35.9307 151.476 35.792C150.755 35.6533 150.075 35.416 149.435 35.0801C148.814 34.7432 148.294 34.2881 147.874 33.7148C147.453 33.1406 147.184 32.4287 147.063 31.5781L149.645 31.5781C149.845 32.1123 150.165 32.5479 150.605 32.8838C151.065 33.2002 151.575 33.4277 152.136 33.5664C152.716 33.7051 153.267 33.7744 153.787 33.7744C154.106 33.7744 154.478 33.7539 154.897 33.7148C155.317 33.6748 155.718 33.5859 156.098 33.4473C156.498 33.2891 156.818 33.0615 157.059 32.7646C157.318 32.4688 157.448 32.0527 157.448 31.5186C157.448 31.123 157.358 30.7959 157.179 30.5391C156.998 30.2822 156.748 30.0742 156.428 29.916C156.108 29.7383 155.718 29.6094 155.258 29.5303C154.317 29.332 153.307 29.1445 152.226 28.9658C151.165 28.7881 150.225 28.4521 149.404 27.957C149.124 27.7793 148.864 27.5811 148.624 27.3633C148.404 27.126 148.214 26.8691 148.054 26.5918C147.894 26.2949 147.764 25.9785 147.663 25.6426C147.583 25.2861 147.543 24.9004 147.543 24.4844C147.543 23.7129 147.693 23.0498 147.993 22.4961C148.313 21.9229 148.754 21.458 149.314 21.1016C149.875 20.7256 150.515 20.4482 151.235 20.2705C151.976 20.0928 152.767 20.0029 153.606 20.0029C154.647 20.0029 155.578 20.1719 156.398 20.5078C157.238 20.8242 157.929 21.2988 158.469 21.9326Q158.63 22.1143 158.765 22.3145Q159.31 23.123 159.43 24.2178L157.059 24.2178C156.918 23.6436 156.538 23.1787 155.918 22.8232C155.298 22.4473 154.507 22.2588 153.547 22.2588C153.227 22.2588 152.866 22.2881 152.466 22.3477C152.065 22.3877 151.686 22.4863 151.325 22.6445C150.965 22.7832 150.665 23.001 150.425 23.2979C150.185 23.5742 150.064 23.9502 150.064 24.4258C150.064 24.8604 150.175 25.2266 150.395 25.5234C150.635 25.8203 150.965 26.0576 151.386 26.2354C151.806 26.4141 152.286 26.5625 152.826 26.6807C153.526 26.8193 154.297 26.9678 155.138 27.126C155.978 27.2646 156.639 27.4131 157.118 27.5713C157.759 27.7695 158.289 28.0459 158.709 28.4023C159.149 28.7588 159.47 29.1836 159.67 29.6787C159.89 30.1729 160 30.7471 160 31.3994C160 32.3301 159.81 33.0918 159.43 33.6855C159.069 34.2783 158.579 34.7432 157.959 35.0801C157.339 35.416 156.648 35.6533 155.888 35.792C155.147 35.9307 154.407 36 153.667 36ZM129.106 20.1816L129.106 35.8223L131.657 35.8223L131.657 20.1816L129.106 20.1816Z" fill="#377DE6" fill-opacity="1.000000" fill-rule="evenodd"/>
</svg>
