<svg width="13.000000" height="14.000000" viewBox="0 0 13 14" fill="none" xmlns="http://www.w3.org/2000/svg" xmlns:xlink="http://www.w3.org/1999/xlink">
	<desc>
			Created with Pixso.
	</desc>
	<defs/>
	<path id="bathtub" d="M12.65 7.31L11.34 7.31L11.34 1.87Q11.34 1.47 11.19 1.13Q11.05 0.81 10.78 0.56Q10.48 0.26 10.12 0.12Q9.8 0 9.43 0Q8.99 -4.77e-7 8.63 0.17Q8.35 0.3 8.12 0.53L7.28 1.37C7.15 1.33 7.04 1.31 6.93 1.31C6.7 1.31 6.46 1.38 6.21 1.53L8.06 3.37C8.2 3.12 8.28 2.88 8.28 2.65C8.28 2.59 8.26 2.47 8.21 2.31L9.06 1.46C9.16 1.36 9.29 1.31 9.43 1.31C9.6 1.31 9.73 1.37 9.84 1.5C9.94 1.6 10 1.72 10 1.87L10 7.31L5.43 7.31Q5.06 7.06 4.87 6.84L3.96 5.81C3.63 5.47 3.26 5.31 2.84 5.31Q2.65 5.31 2.48 5.35Q2.1 5.46 1.78 5.78Q1.53 6.03 1.42 6.33Q1.34 6.55 1.34 6.81L1.34 7.31L-0.66 7.31L-0.66 11.31Q-0.66 11.53 -0.59 11.74Q-0.5 12.01 -0.29 12.25C-0.02 12.52 0.3 12.65 0.65 12.65Q0.65 12.82 0.72 12.96Q0.76 13.05 0.84 13.12Q0.96 13.22 1.1 13.27Q1.21 13.31 1.34 13.31L10.65 13.31Q10.82 13.31 10.96 13.24Q11.05 13.2 11.12 13.12C11.27 13 11.34 12.84 11.34 12.65Q11.57 12.65 11.77 12.57Q12.03 12.47 12.25 12.25C12.52 11.97 12.65 11.66 12.65 11.31L12.65 7.31ZM1.45 3.86Q1.54 4.09 1.71 4.28Q1.86 4.43 2.04 4.52Q2.31 4.65 2.65 4.65Q2.99 4.65 3.26 4.52Q3.44 4.43 3.59 4.28C3.86 4.01 4 3.68 4 3.31Q4 3.01 3.88 2.77Q3.78 2.55 3.59 2.37Q3.44 2.22 3.26 2.13Q2.99 2 2.65 2Q2.31 2 2.04 2.13Q1.86 2.22 1.71 2.37Q1.56 2.52 1.47 2.7Q1.34 2.97 1.34 3.31Q1.34 3.61 1.45 3.86Z" fill="#65665C" fill-opacity="1.000000" fill-rule="evenodd"/>
</svg>
