<svg width="13.000000" height="17.000000" viewBox="0 0 13 17" fill="none" xmlns="http://www.w3.org/2000/svg" xmlns:xlink="http://www.w3.org/1999/xlink">
	<desc>
			Created with Pixso.
	</desc>
	<defs/>
	<path id="shopping_bag" d="M9.32 3L11 3Q11.37 3 11.67 3.14Q11.95 3.26 12.17 3.5C12.51 3.82 12.67 4.21 12.67 4.67L12.67 14.67Q12.67 14.92 12.61 15.14Q12.49 15.53 12.17 15.85Q11.98 16.03 11.75 16.15Q11.42 16.32 11 16.32L1 16.32Q0.62 16.32 0.3 16.18Q0.02 16.07 -0.22 15.85Q-0.49 15.55 -0.6 15.21Q-0.68 14.96 -0.68 14.67L-0.68 4.67Q-0.68 4.25 -0.52 3.92Q-0.4 3.69 -0.22 3.5C0.12 3.16 0.53 3 1 3L2.67 3C2.67 2.37 2.82 1.81 3.1 1.32C3.42 0.82 3.82 0.43 4.32 0.14Q4.53 0.01 4.76 -0.09Q5.33 -0.33 6 -0.33C6.62 -0.33 7.18 -0.17 7.67 0.14Q8.05 0.36 8.34 0.65Q8.63 0.94 8.85 1.32C9.16 1.81 9.32 2.37 9.32 3ZM7.17 1.82C6.85 1.48 6.46 1.32 6 1.32Q5.67 1.32 5.38 1.42Q5.06 1.55 4.78 1.82Q4.6 2.01 4.48 2.24Q4.32 2.57 4.32 3L7.67 3Q7.67 2.62 7.53 2.32Q7.41 2.04 7.17 1.82ZM4.08 6.94C4.24 6.76 4.32 6.55 4.32 6.32L4.32 4.67L2.67 4.67L2.67 6.32C2.67 6.55 2.75 6.76 2.91 6.94Q3 7.03 3.12 7.09Q3.28 7.17 3.5 7.17Q3.71 7.17 3.87 7.09Q3.99 7.03 4.08 6.94ZM9.08 6.94C9.24 6.76 9.32 6.55 9.32 6.32L9.32 4.67L7.67 4.67L7.67 6.32C7.67 6.55 7.75 6.76 7.91 6.94Q8 7.03 8.12 7.09Q8.28 7.17 8.5 7.17Q8.71 7.17 8.87 7.09Q8.99 7.03 9.08 6.94Z" fill="#2A2C1F" fill-opacity="1.000000" fill-rule="evenodd"/>
</svg>
