<svg width="24.000000" height="24.000000" viewBox="0 0 24 24" fill="none" xmlns="http://www.w3.org/2000/svg" xmlns:xlink="http://www.w3.org/1999/xlink">
	<desc>
			Created with Pixso.
	</desc>
	<defs>
		<clipPath id="clip5_601">
			<rect id="IMAGE" width="24.000000" height="24.000000" fill="white" fill-opacity="0"/>
		</clipPath>
	</defs>
	<g clip-path="url(#clip5_601)">
		<path id="Vector" d="M5 3L19 3C20.1 3 21 3.89 21 5L21 19C21 20.1 20.1 21 19 21L5 21C3.89 21 3 20.1 3 19L3 5C3 3.89 3.89 3 5 3ZM8 18C8.27 18 8.5 17.77 8.5 17.5L8.5 10.5C8.5 10.22 8.27 10 8 10L6.5 10C6.22 10 6 10.22 6 10.5L6 17.5C6 17.77 6.22 18 6.5 18L8 18ZM7.25 9C6.42 9 5.75 8.32 5.75 7.5C5.75 6.67 6.42 6 7.25 6C8.07 6 8.75 6.67 8.75 7.5C8.75 8.32 8.07 9 7.25 9ZM17.5 18C17.77 18 18 17.77 18 17.5L18 12.9C18.03 11.31 16.85 9.95 15.28 9.75C14.17 9.65 13.1 10.17 12.5 11.09L12.5 10.5C12.5 10.22 12.27 10 12 10L10.5 10C10.22 10 10 10.22 10 10.5L10 17.5C10 17.77 10.22 18 10.5 18L12 18C12.27 18 12.5 17.77 12.5 17.5L12.5 13.75C12.5 12.92 13.17 12.25 14 12.25C14.82 12.25 15.5 12.92 15.5 13.75L15.5 17.5C15.5 17.77 15.72 18 16 18L17.5 18Z" fill="#2A2C1F" fill-opacity="1.000000" fill-rule="evenodd"/>
	</g>
</svg>
