<svg width="24.000000" height="24.000000" viewBox="0 0 24 24" fill="none" xmlns="http://www.w3.org/2000/svg" xmlns:xlink="http://www.w3.org/1999/xlink">
	<desc>
			Created with Pixso.
	</desc>
	<defs>
		<clipPath id="clip5_595">
			<rect id="IMAGE" width="24.000000" height="24.000000" fill="white" fill-opacity="0"/>
		</clipPath>
	</defs>
	<g clip-path="url(#clip5_595)">
		<path id="Vector" d="M16.5 6L13.5 6C12.94 6 12.5 6.44 12.5 7L12.5 10L16.5 10C16.61 9.99 16.72 10.05 16.78 10.14C16.85 10.23 16.87 10.35 16.84 10.46L16.1 12.66C16.03 12.86 15.84 12.99 15.63 13L12.5 13L12.5 20.5C12.5 20.77 12.27 21 12 21L9.5 21C9.22 21 9 20.77 9 20.5L9 13L7.5 13C7.22 13 7 12.77 7 12.5L7 10.5C7 10.22 7.22 10 7.5 10L9 10L9 7C9 4.79 10.79 3 13 3L16.5 3C16.77 3 17 3.22 17 3.5L17 5.5C17 5.77 16.77 6 16.5 6Z" fill="#2A2C1F" fill-opacity="1.000000" fill-rule="nonzero"/>
	</g>
</svg>
