<svg width="24.000000" height="24.000000" viewBox="0 0 24 24" fill="none" xmlns="http://www.w3.org/2000/svg" xmlns:xlink="http://www.w3.org/1999/xlink">
	<desc>
			Created with Pixso.
	</desc>
	<defs>
		<clipPath id="clip5_599">
			<rect id="IMAGE" width="24.000000" height="24.000000" fill="white" fill-opacity="0"/>
		</clipPath>
	</defs>
	<g clip-path="url(#clip5_599)">
		<path id="Vector" d="M16 3L8 3C5.23 3 3 5.23 3 8L3 16C3 18.76 5.23 21 8 21L16 21C18.76 21 21 18.76 21 16L21 8C21 5.23 18.76 3 16 3ZM19.25 16C19.24 17.79 17.79 19.24 16 19.25L8 19.25C6.2 19.24 4.75 17.79 4.75 16L4.75 8C4.75 6.2 6.2 4.75 8 4.75L16 4.75C17.79 4.75 19.24 6.2 19.25 8L19.25 16ZM16.75 8.25C17.3 8.25 17.75 7.8 17.75 7.25C17.75 6.69 17.3 6.25 16.75 6.25C16.19 6.25 15.75 6.69 15.75 7.25C15.75 7.8 16.19 8.25 16.75 8.25ZM12 7.5C9.51 7.5 7.5 9.51 7.5 12C7.5 14.48 9.51 16.5 12 16.5C14.48 16.5 16.5 14.48 16.5 12C16.5 10.8 16.02 9.65 15.18 8.81C14.34 7.97 13.19 7.49 12 7.5ZM9.25 12C9.25 13.51 10.48 14.75 12 14.75C13.51 14.75 14.75 13.51 14.75 12C14.75 10.48 13.51 9.25 12 9.25C10.48 9.25 9.25 10.48 9.25 12Z" fill="#2A2C1F" fill-opacity="1.000000" fill-rule="evenodd"/>
	</g>
</svg>
