<svg width="105.000000" height="32.000000" viewBox="0 0 105 32" fill="none" xmlns="http://www.w3.org/2000/svg" xmlns:xlink="http://www.w3.org/1999/xlink">
	<desc>
			Created with Pixso.
	</desc>
	<defs>
		<clipPath id="clip5_555">
			<rect id="IMAGE" width="105.000000" height="32.000000" fill="white" fill-opacity="0"/>
		</clipPath>
	</defs>
	<g clip-path="url(#clip5_555)">
		<path id="Vector" d="M12 0L20 0C26.62 0 32 5.37 32 12L32 20C32 26.62 26.62 32 20 32L12 32C5.37 32 0 26.62 0 20L0 12C0 5.37 5.37 0 12 0Z" fill="#CF6F49" fill-opacity="1.000000" fill-rule="evenodd"/>
		<path id="Vector" d="M41.36 23L41.36 9L46.5 9C47.62 9 48.54 9.19 49.26 9.58C49.99 9.95 50.54 10.46 50.9 11.12C51.26 11.76 51.44 12.47 51.44 13.26C51.44 14.11 51.21 14.89 50.76 15.6C50.32 16.3 49.62 16.82 48.68 17.14L51.58 23L48.64 23L46.04 17.48L43.92 17.48L43.92 23L41.36 23ZM43.92 15.6L46.34 15.6C47.19 15.6 47.82 15.39 48.22 14.98C48.62 14.56 48.82 14.02 48.82 13.34C48.82 12.67 48.62 12.14 48.22 11.74C47.83 11.34 47.2 11.14 46.32 11.14L43.92 11.14L43.92 15.6ZM57.97 23.24C56.97 23.24 56.08 23.02 55.31 22.6C54.54 22.17 53.93 21.57 53.49 20.8C53.05 20.02 52.83 19.13 52.83 18.12C52.83 17.09 53.04 16.18 53.47 15.37C53.91 14.58 54.51 13.96 55.27 13.52C56.04 13.06 56.95 12.84 57.99 12.84C58.96 12.84 59.82 13.05 60.57 13.48C61.32 13.9 61.9 14.49 62.31 15.24C62.74 15.97 62.95 16.79 62.95 17.7C62.95 17.84 62.94 18 62.93 18.16C62.93 18.32 62.92 18.48 62.91 18.66L55.37 18.66C55.42 19.43 55.69 20.04 56.17 20.48C56.66 20.91 57.26 21.14 57.95 21.14C58.47 21.14 58.9 21.02 59.25 20.8C59.61 20.56 59.88 20.25 60.05 19.87L62.65 19.87C62.46 20.5 62.15 21.08 61.71 21.6C61.28 22.1 60.75 22.5 60.11 22.8C59.48 23.09 58.77 23.24 57.97 23.24ZM57.99 14.91C57.36 14.91 56.81 15.1 56.33 15.46C55.85 15.8 55.54 16.34 55.41 17.06L60.35 17.06C60.31 16.4 60.07 15.88 59.63 15.5C59.19 15.11 58.64 14.91 57.99 14.91ZM68.52 23.24C67.67 23.24 66.97 23.1 66.42 22.84C65.88 22.56 65.47 22.19 65.2 21.74C64.94 21.28 64.8 20.78 64.8 20.24C64.8 19.32 65.16 18.57 65.88 18C66.6 17.42 67.68 17.14 69.12 17.14L71.64 17.14L71.64 16.89C71.64 16.22 71.45 15.72 71.06 15.39C70.68 15.08 70.2 14.91 69.62 14.91C69.1 14.91 68.65 15.04 68.26 15.3C67.88 15.54 67.64 15.89 67.54 16.37L65.04 16.37C65.11 15.66 65.35 15.03 65.76 14.5C66.19 13.96 66.74 13.56 67.4 13.28C68.07 12.98 68.82 12.84 69.64 12.84C71.06 12.84 72.17 13.19 72.98 13.89C73.8 14.6 74.2 15.6 74.2 16.89L74.2 23L72.02 23L71.78 21.39C71.49 21.93 71.08 22.37 70.54 22.72C70.02 23.06 69.35 23.24 68.52 23.24ZM69.1 21.24C69.84 21.24 70.4 21 70.8 20.52C71.22 20.04 71.48 19.44 71.58 18.74L69.4 18.74C68.72 18.74 68.24 18.86 67.94 19.12C67.65 19.35 67.5 19.66 67.5 20.02C67.5 20.4 67.65 20.7 67.94 20.91C68.24 21.13 68.62 21.24 69.1 21.24ZM76.65 23L76.65 8.6L79.21 8.6L79.21 23L76.65 23ZM86.68 23.24C85.67 23.24 84.78 23.02 84 22.58C83.23 22.14 82.62 21.52 82.16 20.74C81.72 19.95 81.5 19.05 81.5 18.04C81.5 17.02 81.72 16.12 82.16 15.34C82.62 14.55 83.23 13.93 84 13.5C84.78 13.06 85.67 12.84 86.68 12.84C87.95 12.84 89.02 13.17 89.88 13.84C90.75 14.49 91.3 15.39 91.54 16.56L88.84 16.56C88.71 16.08 88.44 15.7 88.04 15.43C87.66 15.16 87.2 15.02 86.66 15.02C85.96 15.02 85.36 15.28 84.86 15.82C84.37 16.35 84.12 17.09 84.12 18.04C84.12 18.98 84.37 19.72 84.86 20.26C85.36 20.79 85.96 21.06 86.66 21.06C87.2 21.06 87.66 20.92 88.04 20.66C88.44 20.39 88.71 20.01 88.84 19.52L91.54 19.52C91.3 20.64 90.75 21.54 89.88 22.22C89.02 22.89 87.95 23.24 86.68 23.24ZM98.57 23.24C97.61 23.24 96.75 23.02 95.97 22.58C95.21 22.14 94.61 21.53 94.15 20.76C93.71 19.97 93.49 19.06 93.49 18.04C93.49 17.01 93.72 16.11 94.17 15.34C94.63 14.55 95.23 13.93 95.99 13.5C96.77 13.06 97.63 12.84 98.59 12.84C99.54 12.84 100.4 13.06 101.16 13.5C101.93 13.93 102.54 14.55 102.98 15.34C103.43 16.11 103.66 17.01 103.66 18.04C103.66 19.06 103.43 19.97 102.98 20.76C102.54 21.53 101.93 22.14 101.16 22.58C100.38 23.02 99.52 23.24 98.57 23.24ZM98.57 21.02C99.24 21.02 99.82 20.77 100.32 20.28C100.81 19.77 101.06 19.02 101.06 18.04C101.06 17.05 100.81 16.31 100.32 15.82C99.82 15.31 99.25 15.06 98.59 15.06C97.91 15.06 97.33 15.31 96.83 15.82C96.35 16.31 96.11 17.05 96.11 18.04C96.11 19.02 96.35 19.77 96.83 20.28C97.33 20.77 97.91 21.02 98.57 21.02Z" fill="#2A2C1F" fill-opacity="1.000000" fill-rule="nonzero"/>
	</g>
</svg>
