<svg width="24.000000" height="24.000000" viewBox="0 0 24 24" fill="none" xmlns="http://www.w3.org/2000/svg" xmlns:xlink="http://www.w3.org/1999/xlink">
	<desc>
			Created with Pixso.
	</desc>
	<defs>
		<clipPath id="clip5_597">
			<rect id="IMAGE" width="24.000000" height="24.000000" fill="white" fill-opacity="0"/>
		</clipPath>
	</defs>
	<g clip-path="url(#clip5_597)">
		<path id="Vector" d="M20.97 6.71C20.5 7.33 19.94 7.87 19.31 8.31C19.31 8.47 19.31 8.64 19.31 8.81C19.31 11.75 18.14 14.56 16.05 16.63C13.96 18.7 11.13 19.83 8.19 19.79C6.49 19.8 4.81 19.41 3.29 18.66C3.21 18.62 3.16 18.54 3.16 18.45L3.16 18.36C3.16 18.23 3.26 18.12 3.39 18.12C5.06 18.07 6.67 17.49 7.99 16.47C6.48 16.44 5.12 15.54 4.5 14.17C4.46 14.09 4.47 14 4.52 13.94C4.57 13.87 4.65 13.84 4.73 13.84C5.19 13.89 5.65 13.85 6.1 13.72C4.43 13.37 3.17 11.99 2.99 10.29C2.99 10.21 3.02 10.13 3.09 10.08C3.16 10.04 3.24 10.03 3.32 10.06C3.77 10.25 4.25 10.36 4.74 10.36C3.28 9.4 2.65 7.58 3.2 5.92C3.26 5.76 3.4 5.64 3.56 5.61C3.73 5.58 3.9 5.63 4.02 5.76C5.99 7.86 8.7 9.11 11.58 9.25C11.5 8.95 11.47 8.65 11.47 8.35C11.5 6.76 12.48 5.34 13.96 4.76C15.44 4.19 17.12 4.56 18.22 5.7C18.97 5.56 19.69 5.31 20.37 4.96C20.42 4.93 20.48 4.93 20.53 4.96C20.56 5.01 20.56 5.07 20.53 5.12C20.2 5.87 19.65 6.5 18.95 6.92C19.56 6.85 20.16 6.7 20.74 6.49C20.79 6.45 20.86 6.45 20.9 6.49C20.95 6.51 20.98 6.54 20.99 6.59C21 6.63 20.99 6.68 20.97 6.71Z" fill="#2A2C1F" fill-opacity="1.000000" fill-rule="nonzero"/>
	</g>
</svg>
