<svg width="15.000000" height="15.000000" viewBox="0 0 15 15" fill="none" xmlns="http://www.w3.org/2000/svg" xmlns:xlink="http://www.w3.org/1999/xlink">
	<desc>
			Created with Pixso.
	</desc>
	<defs/>
	<path id="Vector" d="M13.83 13.36L13.36 13.83C13.1 14.09 12.68 14.09 12.42 13.83L6.99 8.41L1.57 13.83C1.31 14.09 0.89 14.09 0.63 13.83L0.16 13.36C-0.1 13.1 -0.1 12.68 0.16 12.42L5.58 6.99L0.16 1.57C-0.1 1.31 -0.1 0.89 0.16 0.63L0.63 0.16C0.89 -0.1 1.31 -0.1 1.57 0.16L6.99 5.58L12.42 0.16C12.68 -0.1 13.1 -0.1 13.36 0.16L13.83 0.63C14.09 0.89 14.09 1.31 13.83 1.57L8.41 6.99L13.83 12.42C14.09 12.68 14.09 13.1 13.83 13.36Z" fill="#FFFFFF" fill-opacity="1.000000" fill-rule="nonzero"/>
</svg>
