<svg width="9.000000" height="13.000000" viewBox="0 0 9 13" fill="none" xmlns="http://www.w3.org/2000/svg" xmlns:xlink="http://www.w3.org/1999/xlink">
	<desc>
			Created with Pixso.
	</desc>
	<defs/>
	<path id="place" d="M2.22 -0.33Q1.38 0.02 0.68 0.71Q0.06 1.34 -0.28 2.1Q-0.66 2.96 -0.66 4Q-0.66 4.96 -0.16 6.25Q0.34 7.53 0.93 8.56C1.35 9.22 1.83 9.92 2.37 10.65Q3.18 11.71 3.5 12.09Q3.81 12.43 4 12.65L4.5 12.12Q4.96 11.56 5.62 10.62C6.08 9.97 6.54 9.29 7 8.56Q7.68 7.46 8.15 6.21C8.48 5.38 8.65 4.64 8.65 4Q8.65 3 8.29 2.16Q7.95 1.37 7.28 0.71Q6.62 0.04 5.83 -0.3Q4.99 -0.66 4 -0.66Q3.04 -0.66 2.22 -0.33ZM3.35 5.53Q3.05 5.41 2.81 5.18C2.5 4.85 2.34 4.45 2.34 4Q2.34 3.61 2.49 3.29Q2.6 3.04 2.81 2.84C3.14 2.51 3.54 2.34 4 2.34Q4.34 2.34 4.63 2.47Q4.92 2.59 5.15 2.84C5.48 3.15 5.65 3.54 5.65 4C5.65 4.45 5.48 4.85 5.15 5.18C4.84 5.5 4.45 5.65 4 5.65Q3.65 5.65 3.35 5.53Z" fill="#65665C" fill-opacity="1.000000" fill-rule="evenodd"/>
</svg>
