<svg width="19.000000" height="18.000000" viewBox="0 0 19 18" fill="none" xmlns="http://www.w3.org/2000/svg" xmlns:xlink="http://www.w3.org/1999/xlink">
	<desc>
			Created with Pixso.
	</desc>
	<defs/>
	<path id="Vector" d="M13.87 12.45L17.87 16.46C18.05 16.65 18.04 16.96 17.85 17.15L17.15 17.85C17.06 17.94 16.93 18 16.79 18C16.66 18 16.53 17.94 16.44 17.85L12.44 13.84C12.33 13.73 12.23 13.61 12.14 13.48L11.39 12.48C10.15 13.47 8.61 14.01 7.02 14.01C3.75 14.02 0.9 11.76 0.17 8.57C-0.56 5.38 1.02 2.1 3.97 0.68C6.92 -0.73 10.46 0.09 12.49 2.66C14.52 5.23 14.5 8.86 12.44 11.41L13.44 12.1C13.6 12.2 13.74 12.32 13.87 12.45ZM2.02 7C2.02 9.77 4.26 12.01 7.02 12.01C8.35 12.01 9.62 11.48 10.56 10.54C11.49 9.6 12.02 8.33 12.02 7C12.02 4.24 9.78 2 7.02 2C4.26 2 2.02 4.24 2.02 7Z" fill="#2A2C1F" fill-opacity="1.000000" fill-rule="evenodd"/>
</svg>
