<svg width="15.000000" height="15.000000" viewBox="0 0 15 15" fill="none" xmlns="http://www.w3.org/2000/svg" xmlns:xlink="http://www.w3.org/1999/xlink">
	<desc>
			Created with Pixso.
	</desc>
	<defs/>
	<path id="search" d="M14.07 12.82L9.92 8.67L9.26 8.67L9.03 8.44C9.36 8.02 9.66 7.48 9.92 6.8C10.19 6.1 10.32 5.47 10.32 4.92Q10.32 3.7 9.86 2.67Q9.47 1.81 8.75 1.1Q8 0.33 7.09 -0.07Q6.1 -0.5 4.92 -0.5Q3.79 -0.5 2.82 -0.1Q1.86 0.3 1.06 1.1C0.02 2.14 -0.5 3.41 -0.5 4.92Q-0.5 6.15 -0.04 7.18Q0.34 8.04 1.06 8.75C2.13 9.79 3.41 10.32 4.92 10.32Q6.08 10.32 7.05 9.9Q7.8 9.59 8.44 9.03L8.67 9.26L8.67 9.92L12.82 14.07L14.07 12.82ZM4.92 8.67C3.88 8.67 3 8.31 2.27 7.58C1.54 6.85 1.17 5.97 1.17 4.92C1.17 3.88 1.54 3 2.27 2.27Q2.8 1.74 3.43 1.47Q4.12 1.17 4.92 1.17Q5.73 1.17 6.42 1.47Q7.05 1.74 7.58 2.27C8.31 3 8.67 3.88 8.67 4.92C8.67 5.97 8.31 6.85 7.58 7.58C6.85 8.31 5.97 8.67 4.92 8.67Z" fill="#2A2C1F" fill-opacity="1.000000" fill-rule="evenodd"/>
</svg>
