<svg width="30.000000" height="30.000000" viewBox="0 0 30 30" fill="none" xmlns="http://www.w3.org/2000/svg" xmlns:xlink="http://www.w3.org/1999/xlink">
	<desc>
			Created with Pixso.
	</desc>
	<defs>
		<clipPath id="clip1_315">
			<rect id="ant-design:android-filled" width="30.000000" height="30.000000" fill="white" fill-opacity="0"/>
		</clipPath>
	</defs>
	<rect id="ant-design:android-filled" width="30.000000" height="30.000000" fill="#FFFFFF" fill-opacity="0"/>
	<g clip-path="url(#clip1_315)">
		<path id="Vector" d="M7.91309 21.7297C7.91309 22.4153 8.47266 22.9749 9.16113 22.9749L10.5879 22.9749L10.5879 26.5022C10.5879 27.3958 11.3057 28.1252 12.1875 28.1252C13.0723 28.1252 13.7871 27.3987 13.7871 26.5022L13.7871 22.9719L16.2773 22.9719L16.2773 26.4993C16.2773 27.3928 16.9951 28.1223 17.877 28.1223C18.7617 28.1223 19.4766 27.3958 19.4766 26.4993L19.4766 22.9719L20.9033 22.9719C21.5918 22.9719 22.1514 22.4124 22.1514 21.7268L22.1514 10.1487L7.91309 10.1487L7.91309 21.7297ZM18.375 4.14868L19.6904 2.24438C19.7666 2.13306 19.749 1.98364 19.6465 1.9104C19.5439 1.84009 19.3975 1.87524 19.3213 1.98657L17.9561 3.96704C17.0566 3.61255 16.0547 3.41626 15.0029 3.41626C13.9512 3.41626 12.9492 3.61255 12.0498 3.96704L10.6846 1.9895C10.6084 1.87817 10.4619 1.84009 10.3594 1.91333C10.2568 1.98364 10.2393 2.13013 10.3154 2.24731L11.6309 4.15161C9.53906 5.12427 8.07422 6.96704 7.88672 9.12036L22.125 9.12036C21.9316 6.96411 20.4639 5.12134 18.375 4.14868ZM11.9971 7.15161C11.8412 7.15161 11.6888 7.10522 11.5592 7.0188C11.4296 6.93213 11.3286 6.80908 11.269 6.66504C11.2093 6.521 11.1937 6.36255 11.2241 6.20972C11.2545 6.05688 11.3296 5.9165 11.4398 5.80615C11.55 5.69604 11.6904 5.62085 11.8433 5.59058C11.9962 5.56006 12.1546 5.57568 12.2987 5.6355C12.4427 5.69507 12.5658 5.79614 12.6523 5.92554C12.7389 6.05518 12.7852 6.20752 12.7852 6.36353C12.7846 6.57227 12.7014 6.77246 12.5537 6.92017C12.4061 7.06787 12.2059 7.15112 11.9971 7.15161ZM18.1025 7.15161C17.9467 7.15161 17.7943 7.10522 17.6647 7.0188C17.5351 6.93213 17.4341 6.80908 17.3745 6.66504C17.3148 6.521 17.2992 6.36255 17.3296 6.20972C17.36 6.05688 17.4351 5.9165 17.5453 5.80615C17.6555 5.69604 17.7959 5.62085 17.9488 5.59058C18.1017 5.56006 18.2601 5.57568 18.4041 5.6355C18.5481 5.69507 18.6712 5.79614 18.7578 5.92554C18.8444 6.05518 18.8906 6.20752 18.8906 6.36353C18.8901 6.57227 18.8069 6.77246 18.6592 6.92017C18.5115 7.06787 18.3114 7.15112 18.1025 7.15161ZM24.6475 10.1018C23.7627 10.1018 23.0479 10.8284 23.0479 11.7249L23.0479 18.0647C23.0479 18.9583 23.7656 19.6877 24.6475 19.6877C25.5322 19.6877 26.2471 18.9612 26.2471 18.0647L26.2471 11.7219C26.25 10.8254 25.5352 10.1018 24.6475 10.1018ZM5.35254 10.1018C4.46777 10.1018 3.75293 10.8284 3.75293 11.7249L3.75293 18.0647C3.75293 18.9583 4.4707 19.6877 5.35254 19.6877C6.2373 19.6877 6.95215 18.9612 6.95215 18.0647L6.95215 11.7219C6.95215 10.8254 6.23438 10.1018 5.35254 10.1018Z" fill="#1D1E22" fill-opacity="1.000000" fill-rule="nonzero"/>
	</g>
</svg>
