<svg width="20.000000" height="20.000000" viewBox="0 0 20 20" fill="none" xmlns="http://www.w3.org/2000/svg" xmlns:xlink="http://www.w3.org/1999/xlink">
	<desc>
			Created with Pixso.
	</desc>
	<defs>
		<clipPath id="clip1_353">
			<rect id="bi:arrow-up-right" width="20.000000" height="20.000000" fill="white" fill-opacity="0"/>
		</clipPath>
	</defs>
	<rect id="bi:arrow-up-right" width="20.000000" height="20.000000" fill="#FFFFFF" fill-opacity="0"/>
	<g clip-path="url(#clip1_353)">
		<path id="Vector" d="M17.5 3.125C17.5 2.95923 17.4341 2.80029 17.317 2.68311C17.1997 2.56592 17.0408 2.5 16.875 2.5L9.375 2.5C9.20923 2.5 9.05029 2.56592 8.93304 2.68311C8.81586 2.80029 8.75 2.95923 8.75 3.125C8.75 3.29077 8.81586 3.44971 8.93304 3.56689C9.05029 3.68408 9.20923 3.75 9.375 3.75L15.3663 3.75L2.6825 16.4326C2.62439 16.4907 2.57831 16.5596 2.54681 16.6355C2.51538 16.7114 2.49921 16.7927 2.49921 16.875C2.49921 16.9573 2.51538 17.0386 2.54681 17.1145C2.57831 17.1904 2.62439 17.2593 2.6825 17.3174C2.7406 17.3755 2.80957 17.4216 2.8855 17.4531C2.96143 17.4846 3.04285 17.5007 3.125 17.5007C3.20715 17.5007 3.28857 17.4846 3.3645 17.4531C3.44043 17.4216 3.5094 17.3755 3.5675 17.3174L16.25 4.63379L16.25 10.625C16.25 10.7908 16.3159 10.9497 16.433 11.0669C16.5503 11.1841 16.7092 11.25 16.875 11.25C17.0408 11.25 17.1997 11.1841 17.317 11.0669C17.4341 10.9497 17.5 10.7908 17.5 10.625L17.5 3.125Z" fill="#FFFFFF" fill-opacity="1.000000" fill-rule="evenodd"/>
	</g>
</svg>
