<svg width="21.000000" height="21.000000" viewBox="0 0 21 21" fill="none" xmlns="http://www.w3.org/2000/svg" xmlns:xlink="http://www.w3.org/1999/xlink">
	<desc>
			Created with Pixso.
	</desc>
	<defs/>
	<path id="Vector" d="M10.5 0C4.70154 0 0 4.82349 0 10.7671C0 15.5249 3.0094 19.5562 7.18127 20.9812C7.23975 20.9939 7.29944 21.0002 7.35938 21C7.74841 21 7.89844 20.7141 7.89844 20.4656C7.89844 20.2078 7.88904 19.5327 7.8844 18.6328C7.53711 18.7144 7.18176 18.7566 6.82495 18.7593C4.80469 18.7593 4.34534 17.189 4.34534 17.189C3.86719 15.9468 3.1781 15.614 3.1781 15.614C2.26404 14.9719 3.17346 14.9531 3.24377 14.9531L3.24841 14.9531C4.3031 15.0469 4.8562 16.0688 4.8562 16.0688C5.38123 16.9875 6.08435 17.2454 6.71252 17.2454C7.12781 17.2371 7.53674 17.1411 7.91248 16.9641C8.00623 16.2703 8.27808 15.7969 8.57812 15.5249C6.24841 15.2532 3.79688 14.3296 3.79688 10.2046C3.79688 9.02808 4.20471 8.06714 4.875 7.31714C4.76721 7.04541 4.40625 5.94849 4.97815 4.46729C5.05481 4.44873 5.13367 4.44092 5.21252 4.44385C5.59216 4.44385 6.44995 4.58911 7.8656 5.57349C9.58569 5.09229 11.4049 5.09229 13.125 5.57349C14.5406 4.58911 15.3984 4.44385 15.7781 4.44385C15.8569 4.44092 15.9358 4.44873 16.0125 4.46729C16.5844 5.94849 16.2234 7.04541 16.1156 7.31714C16.7859 8.07178 17.1937 9.03271 17.1937 10.2046C17.1937 14.3391 14.7375 15.2485 12.3984 15.5156C12.7734 15.8484 13.111 16.5046 13.111 17.5078C13.111 18.9468 13.0969 20.1094 13.0969 20.4609C13.0969 20.7141 13.2422 21 13.6312 21C13.6942 21.0002 13.7571 20.9939 13.8187 20.9812C17.9954 19.5562 21 15.5203 21 10.7671C21 4.82349 16.2985 0 10.5 0Z" fill="#FFFFFF" fill-opacity="1.000000" fill-rule="nonzero"/>
</svg>
