<svg width="24.000000" height="24.000000" viewBox="0 0 24 24" fill="none" xmlns="http://www.w3.org/2000/svg" xmlns:xlink="http://www.w3.org/1999/xlink">
	<desc>
			Created with Pixso.
	</desc>
	<defs>
		<clipPath id="clip1_298">
			<rect id="icons / logo-facebook" width="24.000000" height="24.000000" fill="white" fill-opacity="0"/>
		</clipPath>
	</defs>
	<g clip-path="url(#clip1_298)">
		<path id="Vector" d="M22.5 12.0635C22.5 6.26514 17.7984 1.56348 12 1.56348C6.20157 1.56348 1.5 6.26514 1.5 12.0635C1.5 17.3042 5.33907 21.6479 10.3594 22.4365L10.3594 15.0996L7.69266 15.0996L7.69266 12.0635L10.3594 12.0635L10.3594 9.75024C10.3594 7.11914 11.9273 5.66455 14.3255 5.66455C15.4744 5.66455 16.6763 5.86987 16.6763 5.86987L16.6763 8.4541L15.3516 8.4541C14.048 8.4541 13.6402 9.26318 13.6402 10.0947L13.6402 12.0635L16.552 12.0635L16.087 15.0996L13.6406 15.0996L13.6406 22.4375C18.6609 21.6494 22.5 17.3054 22.5 12.0635Z" fill="#818698" fill-opacity="1.000000" fill-rule="evenodd"/>
	</g>
</svg>
