<svg width="24.000000" height="24.000000" viewBox="0 0 24 24" fill="none" xmlns="http://www.w3.org/2000/svg" xmlns:xlink="http://www.w3.org/1999/xlink">
	<desc>
			Created with Pixso.
	</desc>
	<defs>
		<clipPath id="clip1_300">
			<rect id="ant-design:instagram-filled" width="24.000000" height="24.000000" fill="white" fill-opacity="0"/>
		</clipPath>
	</defs>
	<rect id="ant-design:instagram-filled" width="24.000000" height="24.000000" fill="#FFFFFF" fill-opacity="0"/>
	<g clip-path="url(#clip1_300)">
		<path id="Vector" d="M12 8.87573C10.2797 8.87573 8.87576 10.2798 8.87576 12C8.87576 13.7202 10.2797 15.1243 12 15.1243C13.7203 15.1243 15.1242 13.7202 15.1242 12C15.1242 10.2798 13.7203 8.87573 12 8.87573ZM21.3703 12C21.3703 10.7063 21.382 9.42432 21.3094 8.13281C21.2367 6.63281 20.8945 5.30151 19.7976 4.20459C18.6984 3.10547 17.3695 2.76562 15.8695 2.69287C14.5758 2.62036 13.2937 2.63208 12.0023 2.63208C10.7086 2.63208 9.42654 2.62036 8.13513 2.69287C6.63513 2.76562 5.30389 3.10791 4.20703 4.20459C3.10779 5.30396 2.76794 6.63281 2.69531 8.13281C2.62265 9.42651 2.63437 10.7085 2.63437 12C2.63437 13.2915 2.62265 14.5757 2.69531 15.8672C2.76794 17.3672 3.11014 18.6985 4.20703 19.7954C5.30624 20.8945 6.63513 21.2344 8.13513 21.3071C9.42889 21.3796 10.7109 21.3679 12.0023 21.3679C13.2961 21.3679 14.5781 21.3796 15.8695 21.3071C17.3695 21.2344 18.7008 20.8921 19.7976 19.7954C20.8969 18.696 21.2367 17.3672 21.3094 15.8672C21.3844 14.5757 21.3703 13.2937 21.3703 12ZM12 16.8071C9.33984 16.8071 7.19296 14.6602 7.19296 12C7.19296 9.33984 9.33984 7.19287 12 7.19287C14.6602 7.19287 16.807 9.33984 16.807 12C16.807 14.6602 14.6602 16.8071 12 16.8071ZM17.0039 8.11865C16.3828 8.11865 15.8812 7.61719 15.8812 6.99609C15.8812 6.375 16.3828 5.87354 17.0039 5.87354C17.625 5.87354 18.1266 6.375 18.1266 6.99609C18.1267 7.14355 18.0978 7.28955 18.0415 7.42603C17.9851 7.56226 17.9024 7.68604 17.7982 7.79028C17.6938 7.89453 17.57 7.97729 17.4337 8.03369C17.2975 8.09009 17.1514 8.1189 17.0039 8.11865Z" fill="#818698" fill-opacity="1.000000" fill-rule="nonzero"/>
	</g>
</svg>
