<svg width="24.000000" height="24.000000" viewBox="0 0 24 24" fill="none" xmlns="http://www.w3.org/2000/svg" xmlns:xlink="http://www.w3.org/1999/xlink">
	<desc>
			Created with Pixso.
	</desc>
	<defs>
		<clipPath id="clip1_302">
			<rect id="akar-icons:linkedin-v2-fill" width="24.000000" height="24.000000" fill="white" fill-opacity="0"/>
		</clipPath>
	</defs>
	<rect id="akar-icons:linkedin-v2-fill" width="24.000000" height="24.000000" fill="#FFFFFF" fill-opacity="0"/>
	<g clip-path="url(#clip1_302)">
		<path id="Vector" d="M9.42899 8.96899L13.143 8.96899L13.143 10.8191C13.678 9.75488 15.05 8.79907 17.111 8.79907C21.062 8.79907 22 10.917 22 14.803L22 22L18 22L18 15.688C18 13.4751 17.465 12.2271 16.103 12.2271C14.214 12.2271 13.429 13.572 13.429 15.687L13.429 22L9.42899 22L9.42899 8.96899ZM2.57001 21.8301L6.57001 21.8301L6.57001 8.79907L2.57001 8.79907L2.57001 21.8301ZM7.14301 4.55005C7.14316 4.88525 7.07666 5.21729 6.94739 5.52661C6.81812 5.83594 6.62866 6.11646 6.39001 6.35205C5.9064 6.83252 5.2518 7.10156 4.57001 7.1001C3.8894 7.09961 3.2363 6.8313 2.75201 6.35303C2.51422 6.1167 2.32538 5.83594 2.19635 5.52637C2.06729 5.21704 2.00058 4.88525 2 4.55005C2 3.87305 2.26999 3.2251 2.75299 2.74707C3.23688 2.26807 3.89023 1.99976 4.57101 2C5.25299 2 5.90701 2.26904 6.39001 2.74707C6.87201 3.2251 7.14301 3.87305 7.14301 4.55005Z" fill="#818698" fill-opacity="1.000000" fill-rule="evenodd"/>
	</g>
</svg>
