<svg width="30.000000" height="30.000000" viewBox="0 0 30 30" fill="none" xmlns="http://www.w3.org/2000/svg" xmlns:xlink="http://www.w3.org/1999/xlink">
	<desc>
			Created with Pixso.
	</desc>
	<defs>
		<clipPath id="clip1_500">
			<rect id="bi:arrow-right" width="30.000000" height="30.000000" transform="matrix(-1 0 0 1 30 0)" fill="white" fill-opacity="0"/>
		</clipPath>
	</defs>
	<rect id="bi:arrow-right" width="30.000000" height="30.000000" transform="matrix(-1 0 0 1 30 0)" fill="#FFFFFF" fill-opacity="0"/>
	<g clip-path="url(#clip1_500)">
		<path id="Vector" d="M28.125 14.9999C28.125 14.7513 28.0262 14.5129 27.8504 14.337C27.6746 14.1613 27.4362 14.0624 27.1875 14.0624L5.07568 14.0624L10.9762 8.1637C11.1523 7.98767 11.2512 7.7489 11.2512 7.49994C11.2512 7.25104 11.1523 7.01227 10.9762 6.83624C10.8002 6.66016 10.5614 6.56128 10.3125 6.56128C10.0636 6.56128 9.82483 6.66016 9.6488 6.83624L2.1488 14.3362C2.0614 14.4233 1.99219 14.5267 1.94495 14.6406C1.89771 14.7546 1.87329 14.8766 1.87329 14.9999C1.87329 15.1233 1.89771 15.2454 1.94495 15.3593C1.99219 15.4731 2.0614 15.5766 2.1488 15.6637L9.6488 23.1637C9.82483 23.3397 10.0636 23.4387 10.3125 23.4387C10.5614 23.4387 10.8002 23.3397 10.9762 23.1637C11.1523 22.9877 11.2512 22.7489 11.2512 22.4999C11.2512 22.251 11.1523 22.0123 10.9762 21.8362L5.07568 15.9374L27.1875 15.9374C27.4362 15.9374 27.6746 15.8387 27.8504 15.6629C28.0262 15.4871 28.125 15.2486 28.125 14.9999Z" fill="#FFFFFF" fill-opacity="1.000000" fill-rule="evenodd"/>
	</g>
</svg>
