<svg width="30.000000" height="30.000000" viewBox="0 0 30 30" fill="none" xmlns="http://www.w3.org/2000/svg" xmlns:xlink="http://www.w3.org/1999/xlink">
	<desc>
			Created with Pixso.
	</desc>
	<defs>
		<clipPath id="clip1_496">
			<rect id="bi:arrow-right" width="30.000000" height="30.000000" fill="white" fill-opacity="0"/>
		</clipPath>
	</defs>
	<rect id="bi:arrow-right" width="30.000000" height="30.000000" fill="#FFFFFF" fill-opacity="0"/>
	<g clip-path="url(#clip1_496)">
		<path id="Vector" d="M1.875 14.9999C1.875 14.7513 1.97375 14.5129 2.1496 14.337C2.32538 14.1613 2.56384 14.0624 2.8125 14.0624L24.9244 14.0624L19.0237 8.1637C18.8477 7.98767 18.7488 7.7489 18.7488 7.49994C18.7488 7.25104 18.8477 7.01227 19.0237 6.83624C19.1998 6.66016 19.4385 6.56128 19.6875 6.56128C19.9365 6.56128 20.1752 6.66016 20.3513 6.83624L27.8513 14.3362C27.9385 14.4233 28.0078 14.5267 28.0551 14.6406C28.1024 14.7546 28.1266 14.8766 28.1266 14.9999C28.1266 15.1233 28.1024 15.2454 28.0551 15.3593C28.0078 15.4731 27.9385 15.5766 27.8513 15.6637L20.3513 23.1637C20.1752 23.3397 19.9365 23.4387 19.6875 23.4387C19.4385 23.4387 19.1998 23.3397 19.0237 23.1637C18.8477 22.9877 18.7488 22.7489 18.7488 22.4999C18.7488 22.251 18.8477 22.0123 19.0237 21.8362L24.9244 15.9374L2.8125 15.9374C2.56384 15.9374 2.32538 15.8387 2.1496 15.6629C1.97375 15.4871 1.875 15.2486 1.875 14.9999Z" fill="#FFFFFF" fill-opacity="1.000000" fill-rule="evenodd"/>
	</g>
</svg>
