<svg width="24.000000" height="24.000000" viewBox="0 0 24 24" fill="none" xmlns="http://www.w3.org/2000/svg" xmlns:xlink="http://www.w3.org/1999/xlink">
	<desc>
			Created with Pixso.
	</desc>
	<defs>
		<clipPath id="clip1_304">
			<rect id="bxl:tiktok" width="24.000000" height="24.000000" fill="white" fill-opacity="0"/>
		</clipPath>
	</defs>
	<rect id="bxl:tiktok" width="24.000000" height="24.000000" fill="#FFFFFF" fill-opacity="0"/>
	<g clip-path="url(#clip1_304)">
		<path id="Vector" d="M19.59 6.68994C18.5932 6.4707 17.6914 5.94141 17.0141 5.17798C16.3368 4.41431 15.9188 3.45581 15.82 2.43994L15.82 2L12.37 2L12.37 15.6699C12.3707 16.2766 12.1806 16.8679 11.8265 17.3604C11.4724 17.853 10.9723 18.2214 10.3971 18.4141C9.82187 18.6064 9.20068 18.613 8.62149 18.4329C8.04233 18.2527 7.53452 17.8948 7.17001 17.4099C6.84348 16.981 6.64352 16.469 6.59274 15.9319C6.54199 15.395 6.64246 14.8547 6.88281 14.3721C7.12314 13.8892 7.49374 13.4834 7.95273 13.2002C8.41171 12.9172 8.94077 12.7681 9.48001 12.77C9.77826 12.7683 10.075 12.812 10.36 12.8999L10.36 9.3999C10.0284 9.35889 9.69412 9.34229 9.36002 9.3501C8.12933 9.38281 6.93494 9.77393 5.9231 10.4753C4.91129 11.1765 4.12592 12.1577 3.66321 13.2986C3.2005 14.4395 3.08051 15.6904 3.31793 16.8984C3.55539 18.1067 4.13992 19.2192 5.00003 20.1001C5.8815 20.9961 7.00952 21.6101 8.24072 21.8638C9.47192 22.1174 10.7507 21.9993 11.9147 21.5247C13.0786 21.0498 14.0752 20.2397 14.7776 19.1973C15.4801 18.1548 15.8569 16.927 15.86 15.6699L15.86 8.66992C17.2515 9.66406 18.92 10.1956 20.63 10.1899L20.63 6.79004C20.2941 6.7915 19.959 6.75781 19.63 6.68994L19.59 6.68994Z" fill="#818698" fill-opacity="1.000000" fill-rule="nonzero"/>
	</g>
</svg>
