<svg width="24.000000" height="24.000000" viewBox="0 0 24 24" fill="none" xmlns="http://www.w3.org/2000/svg" xmlns:xlink="http://www.w3.org/1999/xlink">
	<desc>
			Created with Pixso.
	</desc>
	<defs>
		<clipPath id="clip1_296">
			<rect id="icons / logo-twitter" width="24.000000" height="24.000000" fill="white" fill-opacity="0"/>
		</clipPath>
	</defs>
	<g clip-path="url(#clip1_296)">
		<path id="Vector" d="M23.25 5.13281C22.406 5.49951 21.513 5.74121 20.5992 5.8501C21.5595 5.2876 22.2817 4.39429 22.6303 3.3374C21.7224 3.86841 20.7307 4.24097 19.6978 4.43896C19.2629 3.98315 18.7397 3.62061 18.1603 3.37329C17.5808 3.12573 16.9571 2.99878 16.327 3C13.7761 3 11.7117 5.03442 11.7117 7.54224C11.7099 7.89111 11.7499 8.23877 11.8308 8.57812C10.0016 8.49243 8.2104 8.02563 6.57187 7.20801C4.93333 6.39038 3.48351 5.23975 2.31516 3.82959C1.90527 4.52075 1.68851 5.30908 1.6875 6.11255C1.6875 7.6875 2.50922 9.07959 3.75 9.89526C3.01488 9.87793 2.29482 9.68335 1.65094 9.32812L1.65094 9.38428C1.65094 11.5874 3.24469 13.4204 5.35406 13.8374C4.9574 13.9434 4.54865 13.9968 4.13812 13.9968C3.84683 13.9973 3.5562 13.9692 3.27046 13.9126C3.85687 15.7173 5.5636 17.0298 7.58531 17.0671C5.94252 18.3333 3.9256 19.0176 1.85156 19.0125C1.48341 19.012 1.11562 18.99 0.75 18.9468C2.85992 20.2942 5.31255 21.0068 7.81593 21C16.3172 21 20.9616 14.0767 20.9616 8.07178C20.9616 7.875 20.9564 7.67822 20.947 7.48584C21.8485 6.84473 22.6283 6.04785 23.25 5.13281Z" fill="#818698" fill-opacity="1.000000" fill-rule="nonzero"/>
	</g>
</svg>
