<svg width="24.000000" height="24.000000" viewBox="0 0 24 24" fill="none" xmlns="http://www.w3.org/2000/svg" xmlns:xlink="http://www.w3.org/1999/xlink">
	<desc>
			Created with Pixso.
	</desc>
	<defs>
		<clipPath id="clip1_306">
			<rect id="ant-design:youtube-filled" width="24.000000" height="24.000000" fill="white" fill-opacity="0"/>
		</clipPath>
	</defs>
	<rect id="ant-design:youtube-filled" width="24.000000" height="24.000000" fill="#FFFFFF" fill-opacity="0"/>
	<g clip-path="url(#clip1_306)">
		<path id="Vector" d="M22.0617 6.93994C21.9422 6.49463 21.7078 6.08862 21.382 5.76245C21.0563 5.43628 20.6505 5.20142 20.2055 5.0813C18.5672 4.64062 12 4.64062 12 4.64062C12 4.64062 5.4328 4.64062 3.79453 5.07886C3.34927 5.19873 2.94333 5.43335 2.61752 5.75952C2.29169 6.08594 2.05743 6.49219 1.93829 6.9375C1.5 8.57812 1.5 12 1.5 12C1.5 12 1.5 15.4219 1.93829 17.0601C2.17969 17.9648 2.89218 18.6772 3.79453 18.9187C5.4328 19.3594 12 19.3594 12 19.3594C12 19.3594 18.5672 19.3594 20.2055 18.9187C21.1102 18.6772 21.8203 17.9648 22.0617 17.0601C22.5 15.4219 22.5 12 22.5 12C22.5 12 22.5 8.57812 22.0617 6.93994ZM9.91406 15.1406L9.91406 8.85938L15.3516 11.9766L9.91406 15.1406Z" fill="#818698" fill-opacity="1.000000" fill-rule="nonzero"/>
	</g>
</svg>
