<svg width="81.497635" height="16.676025" viewBox="0 0 81.4976 16.676" fill="none" xmlns="http://www.w3.org/2000/svg" xmlns:xlink="http://www.w3.org/1999/xlink">
	<desc>
			Created with Pixso.
	</desc>
	<defs/>
	<path id="MetaV" d="M37.0946 16.258C37.5493 16.5367 38.0553 16.676 38.6126 16.676L43.4306 16.676L43.4306 13.794L38.7226 13.794C38.6493 13.794 38.5833 13.772 38.5246 13.728Q38.4916 13.684 38.4751 13.6345Q38.4586 13.585 38.4586 13.53L38.4586 6.79803L43.4306 6.79803L43.4306 3.91603L38.4586 3.91603L38.4586 2.67029e-05L35.5766 2.67029e-05L35.5766 13.64C35.5766 14.1974 35.7159 14.7034 35.9946 15.158C36.2733 15.6127 36.6399 15.9794 37.0946 16.258ZM5.36442e-06 0.836027L5.36442e-06 16.676L2.90401 16.676L2.90401 5.08203L8.93201 12.21L14.938 5.06003L14.938 16.676L17.864 16.676L17.864 0.836027L14.652 0.836027L8.93201 7.67803L3.19001 0.836027L5.36442e-06 0.836027ZM60.5536 0.836027L69.7276 16.676L72.3236 16.676L81.4976 0.836027L78.1316 0.836027L71.0256 13.156L63.9416 0.836027L60.5536 0.836027ZM21.8182 16.258C22.2728 16.5367 22.7788 16.676 23.3362 16.676L33.2582 16.676L33.2582 13.794L23.4462 13.794C23.3728 13.794 23.3068 13.772 23.2482 13.728C23.2042 13.6694 23.1822 13.6034 23.1822 13.53L23.1822 11.748L33.2582 11.748L33.2582 6.95203C33.2582 6.39469 33.1188 5.88869 32.8402 5.43403C32.5762 4.97936 32.2095 4.61269 31.7402 4.33403C31.2855 4.05536 30.7795 3.91603 30.2222 3.91603L23.3362 3.91603C22.7788 3.91603 22.2728 4.05536 21.8182 4.33403C21.3635 4.61269 20.9968 4.97936 20.7182 5.43403Q20.5714 5.67356 20.4761 5.9321Q20.3002 6.40965 20.3002 6.95203L20.3002 13.64Q20.3002 14.1824 20.4761 14.66Q20.5714 14.9185 20.7182 15.158C20.9968 15.6127 21.3635 15.9794 21.8182 16.258ZM47.1482 16.258C47.6176 16.5367 48.1309 16.676 48.6882 16.676L58.6102 16.676L58.6102 6.95203C58.6102 6.39469 58.4709 5.88869 58.1922 5.43403C57.9282 4.97936 57.5616 4.61269 57.0922 4.33403C56.6376 4.05536 56.1316 3.91603 55.5742 3.91603L45.6522 3.91603L45.6522 6.79803L55.4642 6.79803Q55.5192 6.79803 55.5632 6.82003Q55.6072 6.84203 55.6402 6.88603C55.6989 6.93003 55.7282 6.98869 55.7282 7.06203L55.7282 8.84403L45.6522 8.84403L45.6522 13.64Q45.6522 14.2362 45.8536 14.7541Q45.9346 14.9624 46.0482 15.158C46.3269 15.6127 46.6936 15.9794 47.1482 16.258ZM30.3762 9.15203L23.1822 9.15203L23.1822 7.06203C23.1822 6.98869 23.2042 6.93003 23.2482 6.88603C23.3068 6.82736 23.3728 6.79803 23.4462 6.79803L30.1122 6.79803C30.1855 6.79803 30.2442 6.82736 30.2882 6.88603C30.3468 6.93003 30.3762 6.98869 30.3762 7.06203L30.3762 9.15203ZM55.7282 13.794L48.7982 13.794C48.7249 13.794 48.6589 13.772 48.6002 13.728Q48.5672 13.684 48.5507 13.6345Q48.5342 13.585 48.5342 13.53L48.5342 11.44L55.7282 11.44L55.7282 13.794Z" fill="#FFFFFF" fill-opacity="1.000000" fill-rule="evenodd"/>
</svg>
